<svg xmlns="http://www.w3.org/2000/svg" width="250" height="250"><defs><path id="a" d="M-172.64-295.945h595.281v841.891H-172.64z"/></defs><path d="M22.043 1c5.205 5.301 10.388 10.623 15.646 15.869.647.646 1.665 1.022 2.579 1.282 5.993 1.697 10.74 5.175 15.031 9.634 7.636 7.94 15.519 15.642 23.341 23.402 2.624 2.604 4.423 5.479 4.532 9.343.032 1.159.722 2.557 1.559 3.399 13.935 14.017 27.941 27.96 41.934 41.917.07.07.192.087.691.302 5.167-4.873 11.111-8.686 18.875-7.111 4.057.823 7.289 3.211 9.822 6.454 5.886 7.538 4.55 16.724-3.886 25.735l4.595 4.302c4.317-5.049 9.497-7.969 16.189-7.404 4.369.369 8.1 2.089 11.18 5.232 7.351 7.501 6.569 16.273-2.547 27.309l4.505 4.055c10.534-8.715 18.905-9.707 26.389-2.94 8.279 7.485 8 14.275-1.332 28.258l4.318 3.958c.68-.617 1.302-1.147 1.888-1.716 9.713-9.438 24.22-6.487 29.536 6.006.251.591.521 1.171.782 1.757v7.132c-2.403 4.272-4.806 8.543-7.291 12.956l6.211 5.084c-1.412 2.161-2.599 4.082-3.889 5.932-4.515 6.477-10.609 11.234-17.076 15.578h-.648c-3.441-3.572-6.789-7.244-10.381-10.659-1.165-1.106-2.905-1.908-4.5-2.203-5.013-.927-7.98-3.624-9.325-8.615-.641-2.38-2.031-4.729-3.623-6.644-2.476-2.976-5.466-5.517-8.138-8.336-2.864-3.021-5.928-5.405-10.238-6.283-4.191-.854-6.219-4.122-7.369-8.188-.639-2.262-1.834-4.58-3.393-6.324-3.518-3.938-7.299-7.668-11.225-11.203-1.502-1.352-3.603-2.375-5.588-2.791-5.233-1.099-8.028-3.822-9.427-8.942-.676-2.475-2.021-4.94-3.641-6.94-2.366-2.921-5.31-5.367-7.9-8.116-2.854-3.028-5.833-5.428-10.291-6.019-4.116-.545-6.685-3.585-7.191-7.724-.425-3.471-2.154-5.88-4.535-8.236-13.886-13.749-27.725-27.548-41.451-41.453-2.516-2.549-5.371-4.068-8.614-5.398-2.999-1.231-6.052-2.885-8.381-5.091-7.99-7.571-15.571-15.574-23.517-23.193-3.847-3.69-6.59-7.835-8.173-12.92-.579-1.861-1.823-3.669-3.18-5.107C10.027 31.166 4.98 26.164 0 21.1v-.65c2.21-3.493 3.954-7.433 6.753-10.364C10.08 6.604 14.313 3.99 18.153 1h3.89zm47.475 79.584l47.339 47.174c1.562-1.675 3.342-3.547 5.083-5.455 3.931-4.309 3.862-8.318-.229-12.421a62088.97 62088.97 0 00-38.883-38.953c-.674-.676-1.396-1.304-1.924-1.794-3.889 3.909-7.675 7.717-11.386 11.449m7.922-20.291c-.859-1.409-1.417-2.869-2.423-3.888-9.646-9.743-19.328-19.452-29.087-29.083-3.396-3.351-4.933-3.32-8.38-.045-3.679 3.491-7.251 7.101-10.786 10.739-3.007 3.098-3.051 4.977-.021 8.035a4334.71 4334.71 0 0029.076 29.095c2.971 2.943 5.146 2.956 8.127.109A341.046 341.046 0 0074.923 64.25c.999-1.045 1.595-2.475 2.517-3.957m151.216 155.238c6.797.428 11.685-3.225 12.68-9.233 1.014-6.132-2.486-11.56-8.405-13.032-7.224-1.798-14.077 3.62-13.735 11.257.177 3.94-.933 6.814-3.941 9.311-2.396 1.985-4.458 4.382-6.628 6.631-1.735 1.799-2.7 3.733-.544 5.897 2.088 2.101 4.12 1.422 5.953-.327 2.652-2.53 5.298-5.08 7.773-7.78 1.983-2.163 4.157-3.393 6.847-2.724m-85.902-110.73c-7.044.017-12.099 5.186-11.702 11.964.218 3.705-.866 6.41-3.65 8.786-2.455 2.094-4.62 4.528-6.897 6.829-1.876 1.896-2.818 3.958-.547 6.164 2.294 2.227 4.313 1.086 6.16-.765 2.897-2.901 5.619-6.008 8.737-8.647 1.391-1.176 3.714-2.249 5.352-1.947 4.631.853 8.124-.686 10.864-4.067 2.9-3.575 3.235-7.699 1.259-11.86-1.994-4.201-5.554-6.126-9.576-6.457m40.141 40.833c-.041-6.385-5.449-11.73-11.595-11.463-6.631.291-11.688 5.674-10.974 12.257.371 3.425-.636 5.795-3.083 7.981-2.413 2.157-4.647 4.52-6.895 6.853-2.578 2.675-2.829 4.53-1 6.425 1.854 1.924 3.784 1.733 6.401-.805 2.637-2.556 5.206-5.183 7.749-7.832 1.915-1.998 3.957-2.869 6.915-2.446 6.572.939 12.525-4.491 12.482-10.97m17.499 41.161c2.452-.906 5.171-1.403 7.297-2.803 4.509-2.967 5.812-9.3 3.375-14.164-2.368-4.729-8.032-7.232-13.138-5.809-5.369 1.499-8.985 6.515-8.176 11.988.467 3.164-.466 5.349-2.747 7.415-2.792 2.533-5.389 5.289-7.986 8.027-1.689 1.779-2.165 3.793-.19 5.699 1.959 1.891 3.936 1.373 5.702-.344 2.628-2.558 5.236-5.138 7.777-7.782 2.162-2.25 4.673-3.408 8.086-2.227M33.465 21.743c-.207-.336-.286-.547-.432-.69-2.76-2.733-5.516-5.469-8.297-8.181-5.699-5.554-7.201-5.544-12.703.299-1.243 1.319-2.382 2.823-3.194 4.432-.464.92-.679 2.711-.138 3.271 4.227 4.379 8.665 8.555 12.843 12.604 3.964-3.9 7.875-7.751 11.921-11.735M159.66 171.081c5.318 5.157 10.537 10.217 15.955 15.473 2.064-2.255 4.573-4.881 6.93-7.639.565-.66.833-1.736.893-2.643.311-4.681-5.113-11.997-9.725-13.002-2.687-.586-5.274-.485-7.45 1.779-2.077 2.165-4.427 4.065-6.603 6.032m44.997 44.697c2.235-2.34 4.512-4.483 6.503-6.868 2.648-3.171 2.646-6.214.029-9.348-1.719-2.057-3.576-4.056-5.649-5.74-2.318-1.882-5.386-2.486-7.84-.853-3.141 2.093-5.765 4.964-8.338 7.256l15.295 15.553m-59.636-58.064c11.341-9.999 12.199-13.373 2.444-22.077-.241-.215-.465-.455-.724-.646-2.496-1.828-6.995-1.724-9.321.325-2.422 2.134-4.752 4.371-7.178 6.615.348.47.565.838.852 1.138 4.601 4.851 9.213 9.692 13.927 14.645m93.38 68.966c-6.41-7.926-11.104-6.63-19.869 3.559l7.925 8.494c4.097-4.136 8.011-8.087 11.944-12.053"/><path d="M61.623 51.188c-.002 6.146-4.738 10.809-10.941 10.773-5.896-.035-10.756-4.858-10.782-10.699-.026-5.957 5.033-11.094 10.865-11.034 6.091.059 10.861 4.876 10.858 10.96"/></svg>