<svg xmlns="http://www.w3.org/2000/svg" width="250" height="250"><path d="M0 168.308c1.421-4.613 2.376-9.435 4.343-13.799 7.431-16.489 20.509-25.468 38.319-27.789 2.041-.266 4.078-.574 6.117-.858 5.498-.765 10.142-3.304 13.308-7.755 2.593-3.644 5.328-7.594 6.431-11.818 4.938-18.915 27.671-34.953 52.706-23.185 5.723 2.689 11.138 6.037 16.854 9.169.732-.698 1.642-1.528 2.512-2.399 15.281-15.27 30.541-30.559 45.855-45.795 1.87-1.86 3.329-3.658 2.229-6.474-.17-.435-.201-1.03-.049-1.467 1.18-3.41-.205-5.865-2.751-8.01-.666-.562-1.188-1.396-1.539-2.21-.733-1.699-.304-3.226 1.061-4.474 1.286-1.18 2.815-1.646 4.284-.624 1.729 1.203 3.254 2.7 5.116 4.28l3.931-4.561c-1.063-.984-2.111-1.861-3.049-2.842-1.992-2.082-2.037-4.638-.181-6.358 1.721-1.598 4.278-1.41 6.169.534.907.933 1.687 1.989 2.66 3.151l4.625-4.404c-1.552-1.748-3.369-3.172-4.334-5.039-1.228-2.369.487-4.137 2.302-5.582h2.476c.745.501 1.691.851 2.198 1.528 2.065 2.756 4.554 2.966 7.659 1.973 3.973-1.271 7.52.005 10.435 2.834a548.755 548.755 0 0112.414 12.424c3.782 3.913 4.703 8.498 3.014 13.713-.312.96.103 2.237.424 3.296.229.756.902 1.365 1.309 2.08.987 1.729 1.191 3.4-.42 4.938-1.602 1.526-3.279 1.287-4.961.231-1.044-.655-2.02-1.42-3.217-2.271l-3.463 4.134c.65 2.364 5.251 4.91 1.169 8.236-3.085 2.513-5.2-.821-7.792-2.076a6772.957 6772.957 0 00-4.063 3.389c.788.949 1.59 1.837 2.305 2.79 1.51 2.013 1.31 4.542-.424 6.004-1.851 1.562-3.76 1.473-5.67-.461-1.644-1.666-3.499-2.405-5.806-1.928-.162.033-.34.104-.486.067-5.142-1.295-7.992 2.093-11.104 5.232-13.82 13.939-27.715 27.807-41.591 41.692-1.276 1.277-2.606 2.5-3.825 3.664 5.669 10.498 12.059 20.722 12.66 33.228.657 13.651-8.158 28.336-20.928 34.418-3.789 1.805-7.712 3.32-11.525 5.075-9.197 4.234-13.657 11.534-14.489 21.562-1.221 14.742-7.188 27.123-19.338 36.074-6.214 4.58-13.201 7.362-20.802 8.64-.64.107-1.261.323-1.891.488h-13.86c-.551-.148-1.095-.338-1.655-.437-31.6-5.54-52.506-23.578-62.704-53.931-1.454-4.326-1.998-8.96-2.964-13.452v-14.845zM132.25 97.97c-6.338-3.229-12.252-6.476-18.37-9.276-3.789-1.734-7.959-1.971-12.136-1.306-12.492 1.993-20.541 9.022-24.923 20.902-1.884 5.106-4.624 10.024-7.696 14.539-4.193 6.163-10.368 9.794-17.761 11.141-2.592.472-5.207.873-7.827 1.125-18.603 1.796-34.212 17.747-35.638 36.401-1.113 14.563 2.861 27.681 10.962 39.705 9.26 13.744 21.09 24.205 37.211 29.101 9.58 2.908 19.33 4.319 29.224 1.553 16.894-4.727 27.938-18.314 29.501-36.838 1.149-13.618 7.843-23.122 20.011-28.952 2.592-1.242 5.413-2.035 7.937-3.393 3.31-1.779 6.859-3.449 9.558-5.967 13.5-12.593 13.053-30.518-1.861-48.642-.641.977-1.103 2.008-1.844 2.762-11.862 12.051-23.715 24.11-35.69 36.048-2.284 2.277-3.486 4.681-3.919 7.9-1.752 13.022-13.667 20.885-26.407 17.663-10.19-2.578-16.178-11.587-15.251-22.944.834-10.222 8.744-17.999 19.327-18.767 2.497-.18 4.333-1.101 6.046-2.832 12.181-12.314 24.415-24.577 36.628-36.859.858-.864 1.68-1.763 2.918-3.064m-26.496 52.378l95.157-95.09-5.812-6.554a4904680.21 4904680.21 0 01-95.895 94.738l6.55 6.906m132.47-122.664c-.57-.849-.964-1.679-1.574-2.301a1211.559 1211.559 0 00-12.725-12.825c-2.075-2.058-2.655-2.06-4.821.107-7.113 7.12-14.16 14.308-21.275 21.426-1.452 1.45-1.605 2.607-.053 4.136 4.526 4.457 8.965 9.002 13.398 13.552 1.363 1.398 2.587 1.517 3.997.085 7.181-7.285 14.396-14.537 21.563-21.836.605-.617.953-1.482 1.49-2.344M75.056 161.767c-.167 6.626 6.073 13.26 12.665 13.462 6.394.197 12.985-5.811 13.177-12.01.227-7.345-5.889-14.063-12.964-14.242-6.553-.165-12.705 5.947-12.878 12.79"/><path d="M48.818 180.618c1.367.836 2.474 1.258 3.24 2.019a1200.822 1200.822 0 0115.626 15.813c2.222 2.294 2.144 3.746.026 5.846-2.1 2.082-3.737 2.153-5.952-.038-5.208-5.156-10.342-10.386-15.494-15.599-1.48-1.496-2.057-3.387-.938-5.162.74-1.174 2.229-1.878 3.492-2.879"/></svg>