<svg xmlns="http://www.w3.org/2000/svg" width="250" height="250"><path d="M175.485 250.846c-2.753-.756-5.614-1.243-8.239-2.312-19.407-7.902-31.344-21.687-33.842-42.999-.496-4.228-1.455-8.506-2.928-12.493-2.357-6.386-7.278-10.52-13.515-13.089-7.582-3.124-13.777-7.985-18.384-14.778-6.333-9.338-6.28-19.229-1.886-29.185 2.162-4.896 5.064-9.468 7.67-14.163.599-1.081.996-1.813-.172-2.978-15.303-15.26-30.546-30.58-45.773-45.917-6.446-6.493-12.775-13.102-19.237-19.579-1.892-1.896-4.05-3.528-6.1-5.266-.336-.287-.711-.603-1.121-.718-1.861-.525-3.881-.708-5.577-1.549-1.639-.813-2.954-2.282-4.167-3.268-1.867 1.651-3.458 3.618-5.518 4.616-.854.414-3.091-.928-4.017-2.037-1.159-1.391-2.415-3.501-2.155-5.053.274-1.642 2.281-2.99 3.672-4.635-.459-.421-1.348-1.237-2.47-2.264-.814 1.198-1.497 2.206-2.182 3.21-1.562 2.289-3.177 2.726-5.427 1.062C2.582 36.318 1.363 34.75 0 33.373v-2.69l4.323-3.686c-1.892-3.558-2.96-7.131.263-10.443C8.46 12.572 12.369 8.616 16.38 4.775c2.467-2.362 5.37-2.675 8.42-1.023.69.373 1.39.733 1.983 1.046 1.562-1.689 3-3.245 4.438-4.798h1.077c1.587 1.269 3.437 2.32 4.704 3.854 2.101 2.544 1.594 4.463-1.184 6.207-.896.564-1.824 1.074-3.009 1.77l3.009 3.35c2.349-1.112 2.451-5.304 5.814-4.418 1.587.418 3.075 1.76 4.26 3.013 1.375 1.453 2.476 3.459.847 5.285-1.2 1.342-3.005 2.148-3.938 2.786 1.56 3.392 2.909 6.717 4.598 9.859 1.171 2.181 2.538 4.39 4.286 6.108 22.378 22.018 44.852 43.937 67.257 65.93 1.292 1.266 2.2 1.17 3.661.315 4.017-2.353 8.033-4.763 12.267-6.669 14.991-6.749 28.347-3.497 38.566 9.417 2.308 2.916 4.345 6.2 5.786 9.62 4.735 11.23 12.965 16.676 25.158 17.179 13.964.58 24.787 7.73 33.517 18.146 14.41 17.194 16.127 38.989 4.807 58.346-10.745 18.374-25.588 31.916-46.056 38.734-2.353.784-4.775 1.349-7.167 2.015h-13.996zm17.506-50.367c.711-.341 1.568-.532 2.114-1.049 3.176-3.019 6.291-6.107 9.407-9.193 2.925-2.895 5.835-5.805 8.73-8.731 1.342-1.354 1.266-2.719-.26-3.863-1.403-1.052-2.711-3.185-4.763-1.228-3.548 3.386-6.954 6.921-10.403 10.38 1.13 1.929 3.993 2.652 3.129 6.137-1.975-1.454-3.645-2.685-5.902-4.349l3.655 5.961c-.274.249-.548.501-.822.749-1.689-1.138-3.377-2.279-5.065-3.417-.223.156-.446.315-.669.475 1.331 1.591 2.664 3.179 3.996 4.767-.287.321-.574.644-.859.966l-5.261-3.414a7565.93 7565.93 0 003.027 5.865c-1.959.985-2.625-.804-3.646-1.747-1.02-.94-1.839-2.002-3.29-.472-2.954 3.111-6.026 6.114-9.021 9.19-1.451 1.492-1.89 3.019.006 4.559 1.664 1.349 3.178 2.668 5.25.43 3.097-3.347 6.393-6.509 9.536-9.814.54-.574.747-1.459 1.111-2.202m-7.053-5.878c-7.236-6.886-14.447-13.615-21.476-20.529-1.825-1.795-3.344-2.308-5.876-1.546-15.389 4.619-29.739-7.067-28.77-23.114.099-1.639-.69-3.765-1.811-4.974-6.104-6.569-12.438-12.923-18.706-19.34-.606-.618-1.294-1.16-2.107-1.884-4.49 5.808-7.917 11.925-9.732 18.871-2.602 9.956-.402 18.869 7.035 25.876 4.041 3.809 8.806 7.201 13.822 9.544 10.803 5.046 16.428 13.344 17.332 24.88 1.126 14.402 7.115 26.179 18.271 35.219 13.736 11.132 29.136 13.976 45.625 7.418 16.49-6.557 29.216-17.915 38.688-32.895 4.602-7.274 8.099-15.04 8.817-23.707 1.581-19.051-7.026-33.363-21.564-44.61-6.744-5.218-14.836-6.685-23.172-7.605-11.865-1.308-20.646-6.949-25.647-18.454-2.192-5.037-6.065-9.461-9.708-13.708-3.063-3.573-7.329-5.719-12.036-6.668-11.952-2.42-21.439 3.267-31.127 9.231 6.213 6.599 12.318 12.802 18.068 19.317 2.614 2.962 5.234 4.026 9.261 3.769 14.343-.915 25.703 12.731 22.208 26.685-.947 3.781-.255 6.152 2.499 8.687 6.908 6.359 13.599 12.952 20.096 19.181 2.584-2.419 5.646-5.177 8.588-8.062 4.651-4.556 5.915-4.577 10.493.111.188.194.378.386.558.584 2.173 2.406 2.338 3.739.077 6.024a4515.26 4515.26 0 01-32.528 32.538c-2.295 2.27-3.582 2.129-6.059.009-.681-.58-1.321-1.214-1.948-1.854-3.105-3.176-3.113-4.763-.025-7.925 3.315-3.397 6.643-6.778 10.854-11.069M4.753 21.811c.92 1.409 1.537 2.958 2.647 3.963 6.442 5.83 12.976 11.559 19.533 17.258 2.398 2.085 3.789 2.016 6.055-.2 3.2-3.131 6.358-6.312 9.466-9.538 2.203-2.285 2.233-3.593.127-6.044-5.541-6.456-10.965-13.029-16.776-19.239-3.588-3.832-4.519-3.736-8.317-.539-3.824 3.22-7.208 6.972-10.665 10.606-.865.908-1.273 2.257-2.07 3.733m39.642 21.954l-.781.784c30.735 30.564 61.468 61.129 92.203 91.69l.816-.823-92.238-91.651zm94.424 89.923c.272-.273.543-.548.814-.822L47.167 41.058c-.26.265-.52.525-.779.787 30.81 30.616 61.622 61.231 92.431 91.843m-5.556 5.525c.28-.265.561-.532.841-.8A7988178.57 7988178.57 0 0041.627 46.51c-.26.261-.518.525-.778.787 30.806 30.638 61.609 61.278 92.414 91.916m-2.045 4.097l.784-.6c-.789-1.09-1.452-2.295-2.381-3.248-18.156-18.63-36.342-37.23-54.523-55.834-.502-.513-.959-1.09-1.537-1.501-.263-.186-.897-.191-1.121 0-.201.172-.225.825-.056 1.1.323.52.835.928 1.273 1.377 18.555 18.992 37.109 37.985 55.669 56.972.6.609 1.261 1.156 1.892 1.734m38.486 15.043c3.532-7.44.866-16.959-6.095-22.181-5.933-4.45-14.742-5.275-19.312-1.128 2.132 0 3.592-.042 5.048.009 2.137.07 4.35-.111 6.396.373 8.429 1.999 13.577 9.793 12.426 18.451-.216 1.632-.836 3.427 1.537 4.476m-15.685 6.77l.759-.893c-2.78-2.512-5.58-5.001-8.333-7.542-2.781-2.566-5.515-5.18-8.237-7.746-2.224 9.481 6.378 18.324 15.811 16.181m-5.074-27.099c5.284 5.626 10.277 10.946 15.398 16.4 2.726-9.48-4.704-17.589-15.398-16.4m-13.602 7.154c-4.374 6.847-1.97 16.292 4.966 21.721 5.541 4.336 14.485 5.107 18.805 1.084-1.787 0-3.078-.152-4.321.022-12.099 1.709-21.487-7.746-19.618-19.783.157-1.001.117-2.031.168-3.044M35.537 6.133l-3.514-3.309-2.043 2.907c2.913 3.182 3.012 3.188 5.557.402m143.719 165.79c-.16.134-.32.265-.48.398a46955.19 46955.19 0 0115.053 13.759l-.574.563a49899.38 49899.38 0 01-13.999-14.72M2.911 32.222l3.618 3.481 1.519-2.264c-1.079-1.115-2.032-2.104-3.046-3.152l-2.091 1.935M18.293 42.63c-1.011-1.259-1.876-2.34-2.805-3.5l-2.557 2.126 3.491 3.829c.658-.864 1.184-1.556 1.871-2.455m21.065-26.818c2.641 3.29 3.189 3.354 5.14.573-.904-1.093-1.828-2.215-2.902-3.516-.826 1.087-1.464 1.922-2.238 2.943"/><path d="M14.1 17.763l18.612 18.533c-2.369 3.124-4.278 3.449-7.138.73a373.028 373.028 0 01-12.172-12.123c-2.681-2.79-2.34-4.84.698-7.14M17.354 14.584c2.414-3.312 4.517-3.596 7.689-.545a427.451 427.451 0 0111.398 11.415c3.067 3.185 2.829 5.081-.641 7.858-6.143-6.235-12.276-12.464-18.446-18.728m16.817 12.413l.169-.076-10.681-10.73a6.413 6.413 0 00-.148.141c3.555 3.554 7.108 7.107 10.66 10.665"/></svg>