<svg xmlns="http://www.w3.org/2000/svg" width="250" height="250"><path d="M0 186.036c.396-1.484.796-2.967 1.189-4.451 3.565-13.469 11.927-22.398 25.163-26.848 6.305-2.118 12.599-4.315 18.762-6.808 8.219-3.325 13.642-9.387 16.567-17.796 3.742-10.753 9.467-20.302 17.827-28.149 3.53-3.312 7.39-6.096 12.157-7.409 6.474-1.784 11.509 1.199 11.936 7.892.228 3.58-.875 7.346-1.891 10.878-.843 2.937-2.458 5.648-3.688 8.478-.419.964-1.04 2.01-.968 2.974.098 1.332.415 3.051 1.31 3.778.585.477 2.701-.133 3.543-.902 4.446-4.053 8.699-8.316 13.029-12.497 25.75-24.856 51.488-49.729 77.286-74.536 2.281-2.195 3.617-4.51 3.143-7.729-.14-.955.043-1.955-.027-2.925-.191-2.665.28-5.033 2.941-6.591-1.813-1.637-3.551-3.076-5.134-4.668-2.094-2.106-2.198-4.063-.494-5.757 1.71-1.694 3.653-1.6 5.771.481 2.022 1.983 3.915 4.103 5.956 6.258 1.245-.764 2.399-1.47 3.817-2.341-1.299-1.006-2.426-1.758-3.41-2.665-1.979-1.821-2.115-3.818-.487-5.547 1.645-1.746 3.609-1.761 5.556.131 1.446 1.408 2.732 2.979 4.211 4.61 1.009-.588 1.968-1.148 2.958-1.729-.714-2.406-3.898-4.569-.704-7.125 3.842-3.071 5.482 1.246 8.121 2.621.789-.451 1.62-.93 2.671-1.532-1.25-2.594.117-4.433 1.891-6.132H250v13.185c-3.252 7.777-6.528 15.545-9.748 23.338-1.985 4.801-3.85 9.655-5.834 14.456-1.566 3.795-3.083 4.328-6.82 2.58-1.028-.482-2.057-.968-3.111-1.389-4.52-1.813-8.371-1.128-12.011 2.401-25.863 25.086-51.827 50.067-77.751 75.091-5.851 5.648-11.655 11.346-17.521 16.979-3.588 3.447-4.439 7.826-4.335 12.499.043 1.973 1.27 2.707 3.187 2.089 4.015-1.294 8.042-2.562 12.039-3.915 4.12-1.396 5.436-.955 7.601 2.764 6.133 10.53 1.506 22.766-10.174 26.917-4.127 1.465-8.322 2.779-12.358 4.466-5.833 2.439-9.014 7.046-9.67 13.292-1.214 11.575-5.051 22.073-12.094 31.429-5.198 6.907-12.034 10.982-20.347 12.853-1.078.242-2.122.639-3.182.966h-9.765c-.916-.266-1.817-.615-2.751-.784-7.054-1.28-13.229-4.373-18.535-9.143a3064.765 3064.765 0 01-24.695-22.464c-5.396-4.959-8.977-11.039-10.789-18.157-.396-1.557-.888-3.087-1.336-4.628v-8.789zm93.232-51.06c-5.732-4.635-4.725-10.218-2.3-15.949.821-1.943 2.011-3.744 2.705-5.724 1.041-2.969 2.011-5.999 2.597-9.082.444-2.342-.498-2.949-2.83-2.351-4.251 1.088-7.572 3.646-10.522 6.762-6.665 7.038-11.129 15.373-14.247 24.465-2.987 8.712-8.447 15.522-16.516 19.712-6.079 3.154-12.67 5.368-19.135 7.715-5.828 2.112-11.581 4.211-16.436 8.273-10.075 8.43-13.762 29.793.259 42.726a4763.444 4763.444 0 0025.388 23.231c11.253 10.232 34.386 12.172 45.507-6.412 4.296-7.18 7.228-14.773 7.976-23.061.937-10.373 5.978-17.48 15.69-21.219 3.94-1.515 7.92-2.925 11.902-4.327 3.617-1.271 6.143-3.641 7.277-7.306.733-2.37.776-4.759-.762-6.82-3.867 1.062-7.504 2.26-11.229 3.046-7.175 1.512-12.025-1.931-13.214-9.108-.036-.215-.233-.402-.513-.864-1.358 1.255-2.619 2.467-3.932 3.62-2.614 2.296-4.031 2.323-6.523-.091a447.346 447.346 0 01-10.357-10.353c-2.554-2.638-2.557-3.972-.129-6.686 3.038-3.392 6.149-6.717 9.344-10.197m105.629-90.281L91.566 148.277c2.254 2.141 4.342 4.122 6.501 6.174L204.982 51.227l-6.121-6.532m43.556-37.13l-.694-.658c-3.24 1.75-6.532 3.414-9.709 5.271a2575.664 2575.664 0 00-24.548 14.529c-4.241 2.536-6.02 5.885-4.006 9.711 1.664 3.165 4.664 5.685 7.332 8.217.592.563 2.279.023 3.454-.095 2.546-.253 5.095-.852 7.625-.766 2.198.076 4.369.903 6.522 1.39.256-.43.463-.691.582-.988 4.243-10.636 8.516-21.258 12.672-31.929.562-1.441.528-3.113.77-4.682"/><path d="M54.597 175.308c1.2.844 2.507 1.537 3.534 2.524 3.451 3.316 6.808 6.734 10.189 10.124.399.399.771.842 1.082 1.312 1.127 1.704 1.132 3.347-.4 4.826-1.534 1.482-3.359 1.595-4.816.209-4.29-4.075-8.467-8.275-12.58-12.532-1.342-1.39-1.013-3.011.359-4.318.756-.724 1.622-1.331 2.632-2.145M82.458 179.782c-1.566-.854-2.861-1.257-3.745-2.094a338.237 338.237 0 01-10.752-10.642c-2.004-2.077-1.947-4.146-.155-5.783 1.703-1.557 3.559-1.437 5.584.555 3.714 3.647 7.439 7.293 10.972 11.113.845.915 1.557 2.694 1.239 3.744-.357 1.188-1.948 2.002-3.143 3.107M51.217 211.011c-1.581-.838-2.814-1.196-3.641-1.98-3.713-3.529-7.37-7.122-10.926-10.81-1.913-1.982-1.86-3.979-.197-5.604 1.673-1.636 3.595-1.592 5.581.353 3.778 3.7 7.545 7.417 11.151 11.282.82.879 1.608 2.636 1.262 3.551-.481 1.263-2.053 2.113-3.23 3.208"/></svg>