<svg xmlns="http://www.w3.org/2000/svg" width="250" height="250"><path d="M240.527 212.569c-4.146 2.01-8.33 1.062-12.563.295a38.736 38.736 0 00-7.66-.599c-.593.013-1.569 1.487-1.662 2.364-.717 6.789-1.25 13.599-1.861 20.399-.297 3.31-.476 6.643-1.003 9.916-.636 3.942-3.435 5.691-7.231 4.847-2.877-.641-3.952-2.027-3.962-5.503-.026-9.348.018-18.697.033-28.047.002-1.15 0-2.302 0-3.651H48.571v2.949c0 9.528.007 19.058-.008 28.587-.003 1.975.245 4.505-2.092 5.019-2.316.509-4.987.357-7.255-.325-.977-.295-1.735-2.615-1.895-4.091-.739-6.787-1.224-13.602-1.815-20.404-.341-3.926-.708-7.849-1.11-12.288-3.272.411-6.331.912-9.411 1.148-2.93.225-5.902.395-8.808.107-.85-.085-2.156-1.792-2.199-2.801-.371-8.524-.782-17.076 2.091-25.354.524-1.51.931-3.149.947-4.733.088-9.159.043-18.319.043-27.555-4.417 2.323-6.258-1.689-8.257-4.506-.895-1.259-1.062-3.839-.395-5.28 7.246-15.634 14.711-31.168 22.165-46.706a13.206 13.206 0 012.292-3.307C51.688 73.198 71.156 54.014 93.47 38.043c6.083-4.355 12.902-7.746 19.598-11.156 4.348-2.214 9.174-2.374 13.941-.991 4.787 1.389 9.404.628 14.004-.939 12.096-4.123 22.459-11.163 32.313-19.072 2.44-1.96 4.876-3.923 7.314-5.884h2.698c4.076 5.338 8.25 10.604 12.175 16.053 1.525 2.116.474 4.145-1.454 5.607-3.146 2.389-6.29 4.785-9.534 7.037-1.776 1.232-2.142 2.548-1.414 4.578a37206.037 37206.037 0 0131.853 89.164c.758 2.129 1.952 3.24 4.299 3.274 4.676.065 8.313 2.256 10.718 6.171 1.441 2.345 2.572 4.93 3.513 7.526 3.618 9.981 3.939 20.359 3.524 30.827-.31 7.848.38 15.573 3.509 22.909v19.422zm-19.084-69.774c-3.5-.947-3.582-3.378-4.089-5.312-.687-2.617-2.065-3.964-4.817-4.191-13.724-1.133-26.881-4.764-39.545-9.95-4.81-1.971-9.549-4.81-13.404-8.271-7.372-6.623-15.737-10.532-25.397-12.029-12.987-2.014-25.979-1.319-38.993-.266-6.34.513-12.543 1.271-17.849 5.177a16003.011 16003.011 0 00-41.641 30.742c-2.756 2.043-4.301 4.895-5.193 8.374h195.599l-5.234-10.811-.647.247 1.21 6.29m2.169 15.596H30.686v21.262h192.927v-21.262zM179.834 32.242c-24.833 18.354-49.465 36.557-74.605 55.136 9.083.584 17.424.975 25.737 1.69 11.807 1.016 22.269 5.062 30.782 13.731 3.103 3.16 6.667 6.046 10.462 8.319 12.016 7.2 25.385 10.712 38.989 13.428.388.078.819-.056 1.443-.11l-32.808-92.194m3.172-21.984l-1.029-.737c-1.714 1.413-3.424 2.831-5.144 4.238-10.264 8.401-21.009 16.004-33.688 20.427-5.351 1.867-10.938 3.132-16.395 1.563-6.152-1.77-11.648-.562-16.817 2.33a157.058 157.058 0 00-16.055 10.342c-21.785 15.952-40.704 35.044-59.215 54.563-.779.819-1.32 1.92-1.788 2.972a4941.947 4941.947 0 00-10.739 24.397c-.3.686-.49 1.417-.962 2.811 1.695-1.228 2.791-1.991 3.856-2.796a996989.14 996989.14 0 00112.126-84.603c14.634-11.043 29.27-22.083 43.876-33.162.795-.601 1.322-1.555 1.974-2.345m5.011.789L9.856 145.414l4.571 5.378c1.426-1.023 2.666-1.894 3.884-2.791C73.84 107.029 129.367 66.057 184.893 25.084c2.313-1.708 4.632-3.408 6.925-5.142 1.309-.99 1.924-2.21.719-3.67-1.417-1.721-2.914-3.377-4.52-5.225M27.104 209.155h199.952v-5.452H27.104v5.452zm206.602-57.014l-.192-1.454c-1.175-.133-2.349-.38-3.524-.38-68.239-.018-136.478-.018-204.717-.009-.896 0-1.869-.084-2.66.235-.602.242-.972 1.06-1.446 1.622.533.342 1.027.873 1.604.986 1.574.31 3.191.389 4.776.658 2.794.475 5.574 1.469 8.361 1.474 59.607.101 119.215.102 178.823.084 3.048 0 6.142-.063 9.129-.587 3.334-.583 6.569-1.728 9.846-2.629M87.947 99.971c.086.188.171.377.258.564.662 0 1.331.064 1.985-.009 14.767-1.674 29.525-2.625 44.324-.231 10.169 1.646 19.419 5.027 26.712 12.725 1.391 1.468 3.258 2.53 5.019 3.592 9.502 5.729 19.979 8.859 30.706 11.227 5.742 1.268 11.553 2.228 17.402 3.339.239-2.816-1.403-3.395-3.247-3.864-6.955-1.776-13.939-3.445-20.837-5.419-12.516-3.582-24.028-8.878-32.877-18.979-3.47-3.961-8.232-6.302-13.228-8.03-13.91-4.814-28.264-4.496-42.658-3.726-.434.022-.93.115-1.276.352-4.107 2.799-8.192 5.634-12.283 8.459m139.252 96.57H27.182v3.522H227.2v-3.522zM185.722 8.972c-1.811-6.759-3.151-7.167-8.083-3.047-.414.346-.829.689-1.247 1.031-10.193 8.347-20.934 15.785-33.479 20.249-5.803 2.064-11.637 2.785-17.697 1.048-4.015-1.151-8.108-.994-11.754 1.197-7.841 4.713-15.923 9.13-23.276 14.526-20.359 14.944-38.132 32.78-55.458 51.062-.968 1.021-1.738 2.303-2.343 3.583-5.789 12.252-11.524 24.527-17.263 36.801-.387.826-.677 1.696-1.011 2.547l.694.357c.836-1.309 1.847-2.539 2.48-3.939 2.7-5.966 5.409-11.932 7.884-17.99 2.668-6.536 5.811-12.838 10.515-18.077 5.753-6.409 11.86-12.518 18.036-18.528 13.727-13.356 27.745-26.422 43.674-37.16 5.164-3.481 10.883-6.207 16.547-8.854 3.694-1.726 7.74-1.935 11.862-.943 5.563 1.336 11.066.604 16.434-1.258 11.635-4.038 21.576-10.914 31.044-18.572 3.123-2.524 6.198-5.11 9.402-7.758l3.039 3.725M37.301 212.507c.922 10.831 1.84 21.286 2.683 31.747.19 2.37 1.421 2.911 3.583 2.841 2.304-.074 2.284-1.476 2.282-3.093-.014-9.874-.004-19.748-.016-29.621 0-.604-.127-1.205-.202-1.874h-8.33zm178.616.094h-8.15c-.146.293-.29.445-.291.599-.035 10.396-.059 20.793-.086 31.188-.003 1.523.675 2.254 2.274 2.321 2.318.098 3.498-.834 3.673-3.199.345-4.645.804-9.282 1.193-13.925.47-5.598.917-11.198 1.387-16.984m14.428-1.855h7.479c.12-2.295.309-4.435.328-6.577.055-6.32-.349-12.601-2.879-18.496-.464-1.081-1.581-2.342-2.627-2.607-1.709-.434-3.609-.118-5.767-.118 4.429 9.094 3.192 18.471 3.466 27.798M27.843 182.939c-2.249 0-4.131-.182-5.95.078-.875.125-2.063.913-2.372 1.693-3.312 8.364-3.262 17.081-2.669 25.999h7.426c-.122-9.395-.634-18.746 3.565-27.77m199.09-2.971h6.988v-24.369c-1.664.158-3.266.038-4.645.535-.941.339-2.22 1.522-2.241 2.355-.178 7.072-.102 14.15-.102 21.479M27.551 156.505l-6.78-.662V179.9h6.78v-23.395zm189.542-27.44c.571.864.906 1.957 1.627 2.368 5.239 2.977 7.585 7.862 9.256 13.311.839 2.736 2.076 3.114 5.06 1.755-1.729-4.193-3.306-8.471-5.236-12.582-1.953-4.161-6.213-6.027-10.707-4.852M27.726 193.41c1.954 0 3.486.168 4.956-.065.826-.13 2.043-.779 2.231-1.438.815-2.853 1.317-5.796 1.986-8.961-1.832 0-3.208-.219-4.465.076-.858.2-1.962.969-2.238 1.741-.95 2.663-1.584 5.437-2.47 8.647m52.91-10.13h-5.979v9.812h5.979v-9.812zm145.526 9.546c-.795-2.911-1.517-5.761-2.393-8.564-.158-.508-.917-1.109-1.449-1.163-1.545-.156-3.116-.056-4.895-.056.363 1.855.638 3.247.905 4.64 1.163 6.054 1.162 6.054 7.248 5.448.083-.008.159-.079.584-.305m-160.633.255H71.3v-9.861h-5.771v9.861zm142.739-9.875c.578 3.089 1.019 5.816 1.645 8.501.14.599.887 1.424 1.435 1.491 1.619.199 3.278.071 5.205.071l-2.071-10.063h-6.214zm-153.927-.269c-1.344 0-2.561-.237-3.619.07-.954.277-2.298 1.013-2.49 1.789-.676 2.734-.931 5.572-1.391 8.683 1.751 0 3.209.199 4.571-.079.745-.15 1.78-1.025 1.903-1.713.497-2.796.69-5.646 1.026-8.75M37.69 193.479c1.49 0 2.62.235 3.583-.063 1.046-.325 2.564-.979 2.782-1.785.732-2.716.979-5.562 1.408-8.345-4.216-.811-5.603-.458-6.099 1.656-.626 2.67-1.065 5.382-1.674 8.537m69.934-10.223h-5.638v9.819h5.638v-9.819zm66.051 9.682h5.803v-9.653h-5.803v9.653zm9.354.121h5.525v-9.873h-5.525v9.873zm-99.308.012h5.656v-9.986c-1.489 0-2.847-.17-4.125.076-.59.112-1.427 1.013-1.462 1.597-.157 2.672-.069 5.356-.069 8.313m41.652-9.798h-5.437v9.855h5.437v-9.855zm3.341 9.655h5.582v-9.632h-5.582v9.632zm41.671-9.721h-5.621v9.789h5.621v-9.789zm36.898 9.86l-1.96-9.8h-5.417l1.122 9.8h6.255zm-9.081.42c-.35-3.228-.545-5.99-1.019-8.703-.117-.665-1.061-1.479-1.775-1.675-1.042-.286-2.221-.073-3.483-.073 0 2.744.108 5.071-.031 7.384-.136 2.268.97 3.067 3.015 3.067h3.293m-136.041-.388v-9.818h-4.984l-1.062 9.818h6.046zm75.643-.079h5.518v-9.549h-5.518v9.549zm9.029.059h5.539v-9.753h-5.539v9.753zm-48.379-9.644H92.96v9.626h5.494v-9.626zm62.798-.172h-5.361v9.893h5.361v-9.893zm-44.827-.034h-5.409v9.848h5.409v-9.848z"/></svg>