<svg xmlns="http://www.w3.org/2000/svg" width="250" height="250"><path d="M11.803 0c.909.949 1.904 1.832 2.706 2.864 1.046 1.347 1.98 1.915 3.778 1.008 2.104-1.063 3.459.692 4.773 2.024 1.165 1.182 2.078 2.401 1.306 4.276-.271.655-.17 1.703.185 2.331 1.051 1.854 2.315 3.589 3.69 5.663 1.11-1.306 2.208-2.356 2.976-3.61.35-.571.234-1.606.002-2.325-.81-2.5-.297-3.813 2.133-4.935 2.345-1.082 5.186-.63 6.941 1.177 1.885 1.94 2.175 4.264 1.25 6.7-.649 1.712-2.084 3.318-3.851 2.438-3.568-1.78-5.159.36-7.089 2.953l8.064 6.853c.833-1.995 2.091-3.645 2.1-5.301.02-3.991.478-5.176 3.505-5.777 3.046-.605 6.4 1.327 7.135 4.273.572 2.291.417 4.899-1.705 6.004-1.447.753-3.68 0-5.562-.08l-.126-.795a4202.81 4202.81 0 00-2.966 3.254c.696.735 1.261 1.387 1.882 1.98 22.389 21.454 44.797 42.887 67.142 64.387 1.369 1.317 2.318 1.385 3.882.467 5.462-3.207 10.941-6.349 17.363-7.422 7.995-1.335 15.299.377 21.29 5.606 4.25 3.711 7.931 8.198 11.28 12.769 2.751 3.754 5.814 6.65 10.21 8.218 4.435 1.58 4.904 2.866 2.592 6.933-2.652 4.661-2.229 9.021.91 13.25 4.412 5.945 10.239 9.891 17.255 12.088 4.196 1.313 7.129-.138 8.854-4.193.14-.329.223-.681.358-1.01 1.353-3.271 2.733-3.549 5.264-.947 1.931 1.986 3.829 4.012 5.61 6.13 2.806 3.335 6.239 5.33 10.521 6.419 2.658.676 5.307 2.229 7.431 4.016 8.331 7.008 13.86 15.767 15.579 26.693.067.429.301.83.457 1.244v10.192c-1.335 6.968-3.603 13.595-7.153 19.763-.26.45-.242 1.053-.473 1.526-1.078 2.209-2.022 4.512-3.35 6.563-1.253 1.938-2.874 3.647-4.42 5.379-8.386 9.395-18.188 16.6-30.662 19.588-2.327.558-4.702.916-7.055 1.365h-5.901c-3.206-.709-6.543-1.063-9.583-2.212-4.482-1.694-9.687-3.003-12.904-6.178-5.715-5.638-12.191-11.076-14.061-19.741-.508-2.355-2.209-4.655-3.885-6.51-2.383-2.637-5.305-4.776-7.893-7.239-2.572-2.447-2.25-3.896.999-5.309 5.62-2.446 6.661-4.986 4.46-10.79-2.302-6.072-5.965-11.157-11.053-15.188-4.458-3.532-8.184-3.796-13.121-1.025-.623.351-1.226.741-1.871 1.044-2.448 1.146-4.189.747-4.928-1.756-1.852-6.277-6.081-10.25-11.517-13.455-2.5-1.475-4.723-3.542-6.782-5.625-10.664-10.793-12.408-23.363-5.167-36.706 1.44-2.654 3.089-5.194 4.731-7.937L29.212 40.358l-3.091 2.875c.029.328-.02.545.067.653 1.239 1.556 2.677 3.055 1.002 5.179-1.412 1.79-4.572 2.537-6.863 1.607-2.383-.967-3.952-3.335-3.734-5.635.349-3.695 2.572-5.323 6.122-4.485 2.071.489 2.071.489 4.321-2.872-2.103-2.439-4.248-4.93-6.565-7.616l-3.646 3.899c.013.065.011.247.088.386.921 1.679 2.502 3.271.841 5.327-1.492 1.848-4.784 2.421-7.161 1.32a6.054 6.054 0 01-3.426-6.386c.454-2.966 2.173-4.744 4.556-3.949 3.033 1.011 4.708-.265 6.373-2.702-1.927-1.196-3.854-2.434-5.831-3.585-.411-.237-1.127-.381-1.501-.184-3.068 1.618-4.984-.425-6.194-2.491-.834-1.422-.386-3.597-.564-6.229L0 11.266V9.12L8.583 0h3.22zm144.83 143.515l29.706 31.392c3.111-.703 4.693-5.097 8.541-1.735 3.943 3.443.406 5.516-.771 7.625l4.334 4.887c.894-.625 1.592-1.112 2.282-1.596 2.541 2.533 4.999 4.876 7.331 7.337 2.076 2.19 2.93 4.802 2.482 7.876-.14.961-.038 2.357.556 2.964 5.124 5.215 10.386 10.293 15.125 14.941 3.374-.767 6.428-1.859 9.531-2.022 2.063-.108 3.172-.598 4.222-2.298 10.576-17.121 7.461-38.848-9.16-53.15-1.763-1.518-4.077-2.681-6.33-3.283-5.307-1.422-9.577-4.238-13.124-8.328-1.494-1.723-3.037-3.401-4.676-5.23-.985 1.465-1.74 2.66-2.567 3.804-2.447 3.381-5.785 4.383-9.696 3.287-8.285-2.319-15.022-6.9-19.97-14.017-3.277-4.712-3.59-9.565-.827-14.609.501-.915.972-1.847 1.521-2.894-.787-.363-1.32-.671-1.893-.865-5.307-1.802-9.18-5.151-12.045-10.034-1.785-3.042-4.193-5.803-6.686-8.33-12.432-12.6-28.153-10.155-39.902.388l43.52 41.739c-.514.733-.969 1.384-1.504 2.151m-57.741-30.504c-2.332 5.034-4.775 9.594-6.591 14.392-2.946 7.783-1.832 15.323 3.505 21.664 3.526 4.189 7.718 7.926 12.052 11.299 4.554 3.545 8.583 7.255 10.292 12.956.139.465.521.857.856 1.388.843-.482 1.534-.861 2.21-1.266 5.676-3.394 11.083-3.223 16.427.885 5.769 4.434 9.932 9.953 12.307 16.828 2.559 7.404 1.147 10.846-5.861 14.273-.189.091-.327.287-.59.528 2.114 1.858 4.136 3.604 6.123 5.391 3.458 3.107 6.23 6.702 7.194 11.349 1.067 5.146 4.477 8.53 8.117 11.745 2.551-3.734 4.759-7.533 7.513-10.882 6.526-7.933 16.168-10.474 25.596-6.543 3.987 1.66 7.609 4.251 11.267 6.621 2.374 1.539 4.511 3.441 6.958 5.34.915-1.226 1.697-2.272 2.542-3.406-4.723-4.74-9.324-9.481-14.096-14.045-.98-.938-2.557-1.381-3.939-1.739-2.221-.572-4.922-.265-6.68-1.438-3.439-2.296-6.367-5.357-9.501-8.097l2.303-3.237-4.223-4.556c-1.395 1.043-2.807 2.102-4.222 3.157-1.358 1.014-2.64 1.004-3.769-.343-1.185-1.41-3.396-2.438-1.871-4.899.931-1.503 1.833-3.025 2.846-4.7l-31.188-30.038-2.679 2.041c-14.225-14.814-28.39-29.563-42.898-44.668m67.784 125.269c11.574 8.045 23.983 10.695 37.512 7.149 14.686-3.85 24.129-14.705 33.554-25.519.951-1.091.328-1.971-.938-1.953-1.741.024-3.836-.171-5.149.689a81.855 81.855 0 00-10.255 7.98c-2.08 1.899-3.599 4.412-5.75 7.131-1.135-1.339-2.074-2.649-3.211-3.755-4.779-4.646-10.059-8.532-16.468-10.71-7.916-2.687-14.757-.997-20.606 4.891-3.904 3.931-6.494 8.682-8.689 14.097M24.08 18.194L9.493 2.875C7.754 4.704 6.047 6.507 4.332 8.302c-1.315 1.376-1.149 2.634.169 3.936 3.55 3.506 7.065 7.048 10.584 10.585 1.215 1.222 2.422 1.334 3.729.134 1.897-1.746 3.823-3.46 5.266-4.763M50.458 49.93l-.592.568c.813.698 1.677 1.347 2.432 2.104 23.962 24.053 47.914 48.116 71.866 72.177 7.123 7.156 14.225 14.332 21.398 21.437.729.724 1.883 1.018 2.84 1.512l.46-.779c-32.801-32.341-65.602-64.68-98.404-97.019M39.144 31.416L25.635 20.059l-5.353 5.551 11.591 13.311 7.271-7.505m111.571 113.51l.749-.761L44.909 39.548l-.516.523 106.322 104.855m73.084 75.075l-15.758-15.802-2.316 2.546 15.133 15.661 2.941-2.405m-28.888-14.313c2.224 2.334 5.172 2.282 8.384-.599 4.974-4.46 5.797-7.695 2.684-11.356l-11.068 11.955m-14.318-24.225l.953-1.009-30.591-31.551-.754.467c.2.688.187 1.582.629 2.031 9.891 10.051 19.831 20.052 29.763 30.062m-79.127-69.153l.36-.289 18.536 19.331c6.614 6.897 13.221 13.803 19.859 20.678.591.613 1.39 1.024 2.092 1.529l.432-.632-41.279-40.617m99.783 76.058l-11.868 11.622 1.754 2.116c4.022-4.072 7.929-8.028 11.911-12.062-.542-.504-1.307-1.218-1.797-1.676M47.729 24.659c1.456-1.8 1.448-3.281.008-4.689-1.568-1.531-3.124-1.394-4.8.313l4.792 4.376m-27.082 17.81c-1.796 1.707-1.884 3.354-.196 4.885 1.417 1.284 2.938 1.472 4.428-.392a9355.343 9355.343 0 00-4.232-4.493m-9.499-9.64c-1.497 1.878-1.933 3.48-.262 5.012 1.32 1.21 2.763 1.528 4.39-.099l-4.128-4.913m26.84-17.442c1.412-1.859 1.795-3.365.298-4.847-1.225-1.211-2.607-1.862-4.365-.276l4.067 5.123m127.999 143.422l-.097.095-11.979-12.62.09-.125 11.986 12.65zm21.798 27.723l-.537 1.046 4.68 4.992c1.287-2.612-.119-3.526-1.26-4.415-.86-.67-1.915-1.091-2.883-1.623m-11.105 6.911l3.427-2.85-1.707-1.936-3.303 2.624 1.583 2.162m17.386-16.99c-.962-.801-1.604-1.337-2.349-1.956l-2.494 2.821 1.599 1.926 3.244-2.791m-40.553-34.282l-.269.286-8.449-9.474c3.245 3.419 5.982 6.303 8.718 9.188"/><path d="M167.034 147.802c-.609-2.649.676-3.826 2.326-4.716 2.189-1.183 4.323-.911 6.264.588 5.371 4.149 9.634 9.267 13.058 15.103 2.288 3.897 5.065 7.354 8.923 9.817 2.932 1.872 6.199 1.326 8.351-1.354 2.417-3.011 1.848-6.396-1.409-8.465-.871-.552-1.714-1.147-2.673-1.795 1.649-2.011 3.194-1.238 4.644-.349 3.558 2.183 4.641 7.208 2.464 11.147-2.295 4.155-7.428 5.977-11.493 3.714-2.219-1.236-4.38-2.89-6-4.829-3.364-4.033-6.277-8.438-9.519-12.577-1.964-2.508-4.007-5.016-6.36-7.144-2.666-2.414-3.644-2.228-6.551-.164-.552.393-1.219.623-2.025 1.024M157.783 200.837c.646.908 1.334 1.788 1.928 2.729 1.705 2.698 4.01 3.505 6.879 2.357 2.983-1.192 4.77-3.999 3.754-6.787-.765-2.096-1.909-4.385-3.569-5.765-6.319-5.253-13.034-10.028-19.332-15.305-1.775-1.488-3.145-3.929-3.789-6.191-.991-3.48 1.707-6.386 5.34-5.912-.427.911-.693 1.793-1.199 2.504-2.132 2.999-2.233 4.273.58 6.639 5.057 4.254 10.349 8.227 15.503 12.366 2.227 1.787 4.59 3.487 6.471 5.601 2.538 2.851 3.743 6.369 2.544 10.189-1.066 3.397-3.802 5.064-7.154 5.752-3.16.648-6.838-.868-8.291-3.65-.62-1.186-.593-2.707-.861-4.077l1.196-.45z"/></svg>