<svg xmlns="http://www.w3.org/2000/svg" width="250" height="250"><path d="M181.919 250c-1.872-.45-3.759-.847-5.613-1.36-11.156-3.097-20.451-9.25-26.82-18.79-4.259-6.379-9.352-10.554-16.749-12.1-1.082-.227-2.328-.432-3.121-1.097-1.323-1.109-3.055-2.474-3.274-3.933-.195-1.294 1.107-3.281 2.322-4.225 3.067-2.385 6.566-4.208 9.694-6.523 4.683-3.468 4.789-6.077.668-10.242-1.764-1.782-3.559-3.547-5.474-5.16-3.164-2.664-4.9-2.61-8.051.16-1.813 1.594-3.494 3.338-5.259 4.987-1.571 1.468-3.261 2.485-5.509 1.375-2.15-1.062-2.82-2.845-2.549-5.077.739-6.074-1.978-10.477-6.454-14.27-4.954-4.199-10.071-8.311-14.42-13.094-11.631-12.793-12.856-26.749-4.211-41.743 1.062-1.843 2.221-3.63 3.422-5.585-.624-.705-1.204-1.403-1.829-2.061C72.229 93.96 55.709 76.707 39.331 59.321c-3.662-3.888-8.396-4.586-13.123-5.026-1.635-.152-3.72 1.435-5.14 2.731-2.663 2.431-4.95 2.942-7.004.969-2.018-1.938-1.798-4.573.616-7.102.833-.873 1.726-1.69 2.556-2.567 1.733-1.829 1.862-3.839.296-5.771-1.569-1.936-3.658-2.169-5.754-.969-1.104.632-2.027 1.612-2.96 2.511C5.17 47.604 3.469 47.615 0 44.085v-3.349c.392-.513.685-1.168 1.189-1.516 3.949-2.719 4.549-6.678 4.426-11.062-.145-5.193-.098-10.397-.036-15.596.049-4.117 1.2-5.332 5.332-5.4 6.404-.105 12.814.061 19.216-.116 1.648-.046 3.542-.575 4.849-1.531 2.126-1.558 3.861-3.649 5.76-5.515h3.349c3.82 2.944 3.938 5.177.504 8.684-1.298 1.325-2.691 2.6-3.758 4.098-1.4 1.966-1.015 5.175.509 6.421 1.786 1.461 4.126 1.156 6.189-.823 1.543-1.48 3.015-3.041 4.619-4.452 2.075-1.824 4.547-1.802 6.261-.083 1.763 1.769 1.769 4.131-.012 6.254-.417.497-.984.879-1.348 1.407-1.485 2.156-4.314 4.517-4.076 6.49.469 3.877 1.65 8.588 4.292 11.133 17.876 17.226 36.197 33.991 54.456 50.814.689.635 2.358.747 3.348.424 5.272-1.727 10.344-4.293 15.726-5.398 9.066-1.862 17.434.942 24.55 6.562 4.706 3.715 8.741 8.286 13.013 12.538 1.313 1.307 2.445 2.802 3.613 4.248 3.211 3.979 7.199 6.257 12.461 6.33 2.678.036 5.822-.366 7.039 3.142 1.151 3.317-1.52 4.859-3.271 6.787-1.5 1.651-3.127 3.187-4.641 4.824-1.414 1.532-1.471 3.164-.034 4.725 2.581 2.804 5.09 5.685 7.822 8.334 2.647 2.566 5.394 2.452 7.68-.437 2.704-3.416 5.119-7.065 7.579-10.668 1.151-1.686 2.313-3.233 4.641-2.889 2.305.341 3.515 1.899 4.155 4.007.243.799.502 1.595.708 2.402 1.729 6.794 5.506 12.092 11.425 15.888 15.275 9.796 21.683 24.173 21.276 41.888-.187 8.113-2.52 15.778-6.385 22.881-1.919 3.526-1.939 6.41.532 9.73 2.648 3.559 4.721 7.547 7.045 11.348v2.79c-2.456 2.503-4.925 4.991-7.362 7.512-2.046 2.116-4.229 2.367-6.746.801-3.625-2.257-7.345-4.361-10.961-6.63-1.958-1.229-3.6-.942-5.703-.058-6.47 2.722-13.061 5.172-19.677 7.525-2.233.795-4.68.985-7.029 1.452h-10.606zm-4.929-127.238c-7.417-2.419-11.484-8.771-16.604-13.955-3.906-3.954-7.903-7.896-12.295-11.275-7.529-5.797-18.539-5.611-27.866.935.477.281.937.454 1.27.764 14.322 13.269 28.648 26.532 42.933 39.84 3.683 3.431 3.701 5.288.169 8.835-5.051 5.074-10.178 10.071-15.272 15.101-5.342 5.274-6.209 5.275-11.383-.144-13.576-14.222-27.14-28.455-40.703-42.68-8.446 9.7-8.896 22.638-.749 32.552 3.051 3.712 6.648 7.009 10.217 10.252 5.25 4.771 11.236 8.852 13.614 16.155.917-.578 1.542-.969 2.163-1.364 5.642-3.597 9.197-3.54 14.527.543a98.486 98.486 0 018.264 7.055c7.094 6.799 7.466 13.073 1.414 20.88-1.33 1.716-2.681 3.416-4.448 5.665 6.726.473 9.032 5.217 11.916 9.633 15.271 23.4 41.32 23.912 61.621 10.848-2.331-3.352-4.724-6.661-6.977-10.063-2.94-4.438-6.717-7.882-11.419-10.387-2.783-1.482-5.529-3.065-8.146-4.822-2.894-1.942-3.264-4.588-.884-7.069a343.21 343.21 0 0112.499-12.346c2.507-2.359 5.094-1.959 7.082.921 1.37 1.984 2.864 3.974 3.756 6.182 4.021 9.946 13.406 13.926 21.366 19.89 1.013-2.203 1.946-4.116 2.782-6.07 10.388-24.266-.601-44.052-17.252-53.294-4.056-2.252-7.339-5.228-8.506-10.138-2.655 1.901-4.995 3.736-7.488 5.329-5.301 3.386-11.536 3.61-15.86-.244-4.195-3.738-7.907-8.093-11.405-12.515-2.552-3.224-2.44-7.107-.625-10.824.65-1.335 1.418-2.608 2.289-4.19m-21.01 20.597L51.847 46.63 45.2 52.687l97.682 102.434 13.098-11.762M14.69 32.268c1.979 0 3.644.058 5.303-.014 2.58-.11 4.255 1.049 5.08 3.45.421 1.224.848 2.457 1.108 3.72.993 4.82 3.78 7.116 8.646 7.488 3.957.303 5.672-2.767 7.928-4.923 4.102-3.921 4.27-4.625 1.765-9.641-.792-1.584-2.459-2.934-4.036-3.869-1.719-1.02-3.776-1.509-5.727-2.093-2.613-.782-3.755-2.53-3.745-5.166.007-1.631.001-3.261.001-4.913H14.69v15.961zm199.239 180.11l-.776.818 10.535 14.67 4.677-5.502-14.436-9.986m21.188 17.14l-4.267 4.64c2.056 1.287 3.778 2.533 5.661 3.451.647.315 1.694-.189 2.559-.319-.149-.735-.129-1.565-.478-2.189-.988-1.764-2.126-3.443-3.475-5.583m-31.702-31.238l-4.094 4.585 7.276 4.113 1.025-1.091a18928.22 18928.22 0 00-4.207-7.607M103.236 250c-2.185-1.98-4.457-3.872-6.542-5.952-28.881-28.821-57.739-57.668-86.597-86.512-.788-.787-1.599-1.567-2.275-2.446-1.716-2.234-1.63-4.605.14-6.267 1.666-1.562 4.044-1.635 6.043.178 2.543 2.307 4.906 4.815 7.279 7.302.695.728 1.16 1.675 1.843 2.689l6.262-6.932c-.983-1.043-1.841-2.001-2.748-2.909-8.011-8.024-16.039-16.032-24.042-24.066-2.399-2.409-2.823-4.671-1.255-6.641 1.532-1.923 3.468-2.47 5.661-1.194.868.505 1.628 1.23 2.345 1.947 40.694 40.669 81.378 81.347 122.061 122.025 2.993 2.993 2.72 5.763-.833 8.777h-27.342zm13.645-8.967l-81.483-81.351-4.969 5.382c.137.171.342.483.602.744 24.64 24.656 49.282 49.311 73.945 73.944.557.556 1.352 1.194 2.058 1.223 3.295.13 6.598.058 9.847.058"/><path d="M172.423 154.875c0 1.475.005 2.447-.001 3.421-.017 2.343-1.149 3.896-3.408 4.481-2.2.57-3.771-.437-4.906-2.271-2.267-3.662-1.292-8.668 2.299-11.817 3.916-3.436 8.405-3.903 11.779-.613 2.969 2.895 5.394 6.35 8.032 9.579.821 1.005 1.394 2.283 2.375 3.066 1.018.812 2.344 1.438 3.624 1.681 2.182.413 1.752-1.542 2.144-2.76.736-2.292 2.237-3.622 4.77-3.361 2.519.261 3.731 1.819 3.988 4.241.801 7.558-6.645 13.095-14.612 10.374-2.796-.955-5.341-3.237-7.459-5.437-2.621-2.723-4.668-5.996-6.99-9.011-.36-.469-.857-.834-1.635-1.573M153.128 175.05c3.963 3.028 8.013 5.952 11.868 9.112 4.424 3.627 5.574 8.419 4.014 13.805-1.296 4.476-5.637 7.264-10.28 6.824-2.47-.233-4.304-1.419-4.606-4.019-.291-2.513 1.22-3.937 3.486-4.691 3.885-1.292 4.234-2.95.97-5.641-3.578-2.95-7.365-5.646-10.979-8.555-3.037-2.445-4.825-5.518-3.372-9.516 1.499-4.13 4.324-7.062 8.893-7.324 1.898-.109 4.009.587 5.751 1.46 1.829.918 2.271 2.893 1.677 4.86-.579 1.918-2.037 2.794-4.016 2.812-1.064.011-2.128.002-3.192.002l-.214.871M173.877 191.206c.804-1.641 1.071-2.804 1.782-3.534 4.213-4.329 8.478-8.611 12.832-12.798 1.979-1.902 3.999-1.745 5.893.105 1.96 1.914 2.106 4.066.104 6.112-4.226 4.318-8.487 8.609-12.934 12.694-.965.886-3.052 1.532-4.121 1.085-1.431-.596-2.373-2.365-3.556-3.664"/></svg>