<?xml version="1.0" encoding="utf-8"?>
<!-- Generator: Adobe Illustrator 16.0.0, SVG Export Plug-In . SVG Version: 6.00 Build 0)  -->
<!DOCTYPE svg PUBLIC "-//W3C//DTD SVG 1.1//EN" "http://www.w3.org/Graphics/SVG/1.1/DTD/svg11.dtd">
<svg version="1.1" id="Layer_1" xmlns="http://www.w3.org/2000/svg" xmlns:xlink="http://www.w3.org/1999/xlink" x="0px" y="0px"
   width="312.899px" height="90.403px" viewBox="0 0 312.899 90.403" enable-background="new 0 0 312.899 90.403"
   xml:space="preserve">
<g>
  <path fill="#8C1700" d="M17.6,62.206c-0.04,0.079-0.119,0.394-0.158,0.631c-0.079,0.276-0.119,0.829-0.119,0.829
    c-2.208-0.356-2.603-0.396-7.375-0.435c-0.237,6.232-0.158,11.832,0.04,17.432c0,0-0.631-0.04-0.868-0.04
    c-0.237,0-0.907,0.04-0.907,0.04c0.118-4.535,0.315-11.121,0.039-17.432c-5.402,0.039-5.797,0.079-7.257,0.315
    c0,0,0.079-0.354,0.157-0.67c0.04-0.315,0.04-0.631,0.04-0.67s0.039-0.04,0.039-0.04c0.907,0.198,0.71,0.316,7.967,0.316
    c7.06,0,7.414-0.118,8.36-0.316C17.6,62.166,17.6,62.166,17.6,62.206z"/>
  <path fill="#8C1700" d="M33.413,75.457c0,3.116-2.839,5.758-7.887,5.443c-1.459-0.079-3.273-0.395-4.969-0.237
    c0.315-5.6,0.118-14.277,0-18.339c1.734,0.119,2.917-0.158,4.298-0.237c4.22-0.275,7.375,1.5,7.177,4.339
    c-0.118,1.893-1.695,3.51-4.062,4.022C31.323,71.04,33.413,73.051,33.413,75.457z M22.213,63.074
    c-0.079,2.129-0.119,4.536-0.158,7.137c1.144,0.04,3.55,0,3.55,0v0.04c3.273-0.079,4.812-1.813,4.89-3.825
    c0.08-2.642-1.853-3.865-5.442-3.708C24.066,62.757,22.963,62.916,22.213,63.074z M31.756,75.457c0-2.682-2.129-4.535-6.151-4.575
    c0,0-2.564-0.04-3.55,0.04c0,3.076,0,6.153,0.119,8.874c0.907,0.197,2.445,0.434,3.588,0.473
    C29.667,80.426,31.756,78.336,31.756,75.457z"/>
  <path fill="#8C1700" d="M44.692,80.938c-4.969,0-8.992-4.219-8.992-9.425c0-5.205,4.022-9.386,8.992-9.386s8.992,4.181,8.992,9.386
    C53.685,76.719,49.662,80.938,44.692,80.938z M37.238,71.513c0,5.206,3.116,8.716,7.454,8.716c4.338,0,7.454-3.51,7.454-8.716
    c0-5.048-3.116-8.716-7.454-8.716C40.354,62.797,37.238,66.426,37.238,71.513z"/>
  <path fill="#8C1700" d="M74.625,71.434c0,5.167-4.062,9.504-9.347,9.504c-2.327,0-4.93-1.183-6.271-2.524
    c0,4.892,0.079,9.387,0.158,11.989c0,0-0.592-0.04-0.829-0.04c-0.236,0-0.828,0.04-0.828,0.04
    c0.118-3.983,0.276-16.682,0.118-24.53c0-1.341-0.157-2.879-0.157-2.879s0.512-0.158,0.749-0.276
    c0.316-0.119,0.986-0.395,0.986-0.395s-0.079,1.065-0.118,2.958c-0.04,0.749-0.04,1.499-0.04,2.288
    c1.104-3.115,3.667-5.167,6.822-5.404c0-0.039,0-0.039,0-0.039c0.079,0,0.158,0,0.198,0c0.079,0,0.157,0,0.237,0
    c0.039,0,0.039,0,0.039,0C71.391,62.284,74.625,66.308,74.625,71.434z M73.047,71.434c0-5.125-2.406-8.518-6.744-8.637
    c-4.22,0.119-7.217,3.707-7.296,8.716c0,2.09-0.04,2.801-0.04,3.904c0,0.671,0,1.302,0,1.972c1.459,1.696,3.983,2.84,6.31,2.84
    C69.616,80.229,73.047,76.482,73.047,71.434z"/>
  <path fill="#8C1700" d="M91.977,80.623c0,0-0.592-0.039-0.829-0.039c-0.237,0-0.828,0.039-0.828,0.039
    c0.079-2.13,0.158-4.733,0.158-7.572c-0.355,0.118-1.696,0.394-3.116,0.513c-9.583,0.67-9.583-7.178-9.308-11.043l0.828,0.04
    l0.79-0.04c-0.315,3.47-0.987,10.767,7.69,10.412c1.222-0.04,2.8-0.394,3.155-0.513c0-3.194,0-6.586-0.197-9.899
    c0,0,0.395,0.04,0.868,0.04c0.354,0,0.789-0.04,0.789-0.04C91.7,68.989,91.779,74.865,91.977,80.623z"/>
  <path fill="#8C1700" d="M112.997,71.513h-0.631h-0.947H97.3c0,5.206,3.352,8.716,7.69,8.716c3.746,0,5.719-1.459,7.336-3.392
    c0.039,0,0.039,0,0.039,0v0.75v0.71c-1.932,1.458-4.22,2.641-7.454,2.641c-5.166,0-9.149-4.18-9.149-9.425
    c0-5.205,4.023-9.386,8.993-9.386C109.723,62.127,113.39,66.149,112.997,71.513z M111.458,70.803
    c0.119-4.772-2.603-8.006-6.704-8.006c-4.102,0-7.139,3.314-7.415,8.006H111.458z"/>
  <path fill="#8C1700" d="M133.03,78.297c-1.972,1.458-4.181,2.641-7.414,2.641c-5.167,0-9.229-4.18-9.229-9.385
    c0-5.562,4.456-9.426,9.426-9.426c4.022,0,6.744,1.972,6.744,1.972l-0.236,0.789l-0.158,0.868
    c-1.419-1.538-3.352-2.998-6.625-2.998c-4.181,0-7.532,3.392-7.532,8.795c0,5.166,3.352,8.715,7.69,8.715
    c3.747,0,5.64-1.499,7.257-3.431c0.039,0,0.039,0,0.039,0v0.789L133.03,78.297z"/>
  <path fill="#8C1700" d="M151.17,80.623h-0.829h-0.828c0-2.997-0.67-9.702-9.662-9.623c-0.552,0-0.907,0.079-1.42,0.119
    c0,3.234,0.079,6.389,0.198,9.504c0,0-0.591-0.039-0.828-0.039c-0.237,0-0.829,0.039-0.829,0.039
    c0.119-4.694,0.315-11.634,0-18.102c0,0,0.355,0.04,0.829,0.04c0.354,0,0.828-0.04,0.828-0.04
    c-0.119,2.721-0.198,5.324-0.198,7.888c0.986,0,1.735-0.04,1.735-0.04c4.062,0,8.125-3.076,8.203-7.808l0.631,0.039l0.71-0.039
    c-0.276,4.338-3.55,7.217-7.217,8.045C150.066,71.79,151.17,77.981,151.17,80.623z"/>
  <path fill="#8C1700" d="M170.454,80.623l-0.828-0.039l-0.867,0.039c-0.118-0.947-0.592-4.654-1.025-7.217
    c-0.789,3.865-3.707,7.494-8.006,7.494c-3.471,0-5.876-2.486-5.955-5.127c-0.118-4.102,3.154-6.31,7.848-6.31
    c1.933,0,4.417,0.434,5.561,0.67c-0.828-4.773-2.13-7.297-5.916-7.376c-2.563-0.079-4.417,1.302-5.443,2.249l-0.354-0.868
    l-0.355-0.79l0.04-0.039c1.617-0.473,3.628-1.223,6.192-1.183c4.298,0.079,6.743,3.194,7.374,8.558
    C168.759,70.921,169.863,77.35,170.454,80.623z M167.338,71.474l-0.039-0.67c0,0-2.682-0.67-5.64-0.67
    c-2.997,0-6.507,1.735-6.35,5.64c0.079,2.878,2.209,4.456,4.378,4.456C164.775,80.229,167.338,74.826,167.338,71.474z"/>
  <path fill="#8C1700" d="M186.859,80.663c0,0-0.394-0.04-0.828-0.04c-0.395,0-0.75,0.04-0.828,0.04
    c0.078-2.563,0.157-5.718,0.157-8.913c-0.276,0-0.59,0-0.907-0.04l0.04,0.04c-6.152-0.276-8.716,5.719-8.953,8.834h-0.867h-0.867
    c0.749-3.51,3.037-7.691,7.217-8.834c-3.865-0.158-6.035-2.405-6.035-4.89c0-3.116,3.036-5.088,7.454-4.812
    c1.38,0.119,2.839,0.396,4.417,0.396C186.583,68.042,186.781,76.601,186.859,80.663z M185.36,71.04c0-2.76,0-5.482-0.118-7.887
    c-0.789-0.197-1.972-0.434-2.997-0.514c-3.747-0.157-5.719,1.341-5.64,4.221c0.039,2.248,1.696,4.259,5.284,4.259
    C181.89,71.119,184.178,71.079,185.36,71.04z"/>
</g>
<g>
  <path fill="#8C1700" d="M214.23,62.284c-0.04,0.08-0.119,0.395-0.158,0.631c-0.078,0.277-0.118,0.829-0.118,0.829
    c-2.327-0.396-2.998-0.474-7.021-0.474c-0.591,0-1.104,0-1.577,0c-0.236,6.193-0.158,11.832,0.04,17.393c0,0-0.591-0.04-0.829-0.04
    c-0.237,0-0.828,0.04-0.828,0.04c0.119-4.496,0.315-11.121,0.04-17.353h-0.04c0-0.197,0-0.394,0-0.552c0-0.079,0-0.158,0-0.196
    c0-0.04,0-0.04,0-0.04c1.263,0.04,5.995,0.197,10.451-0.276C214.23,62.245,214.23,62.245,214.23,62.284z"/>
  <path fill="#8C1700" d="M234.342,71.434c0,5.167-4.062,9.504-9.346,9.504c-2.327,0-4.929-1.183-6.271-2.524
    c0,4.892,0.079,9.387,0.158,11.989c0,0-0.591-0.04-0.828-0.04s-0.828,0.04-0.828,0.04c0.118-3.983,0.276-16.682,0.118-24.53
    c0-1.341-0.157-2.879-0.157-2.879s0.512-0.158,0.749-0.276c0.316-0.119,0.985-0.395,0.985-0.395s-0.078,1.065-0.117,2.958
    c-0.039,0.749-0.039,1.499-0.039,2.288c1.104-3.115,3.667-5.167,6.822-5.404c0-0.039,0-0.039,0-0.039c0.08,0,0.158,0,0.198,0
    c0.079,0,0.158,0,0.237,0c0.039,0,0.039,0,0.039,0C231.109,62.284,234.342,66.308,234.342,71.434z M232.765,71.434
    c0-5.125-2.407-8.518-6.744-8.637c-4.22,0.119-7.218,3.707-7.297,8.716c0,2.09-0.04,2.801-0.04,3.904c0,0.671,0,1.302,0,1.972
    c1.46,1.696,3.984,2.84,6.311,2.84C229.333,80.229,232.765,76.482,232.765,71.434z"/>
  <path fill="#8C1700" d="M252.363,62.6c-1.536,6.035-3.667,11.477-5.993,15.894c-3.037,5.759-5.6,10.057-6.98,11.792l-0.908-0.039
    l-1.025,0.039c0.436-0.513,3.629-3.983,6.667-9.15c-1.736-4.337-6.31-14.71-8.243-18.615c0,0,0.789,0.04,0.985,0.04
    c0.197,0,0.987-0.04,0.987-0.04c1.222,2.918,4.89,11.871,7.256,16.801c0.277-0.513,0.552-1.025,0.828-1.539
    c2.17-4.338,4.141-9.346,5.285-15.184l0.553,0.039L252.363,62.6z"/>
  <path fill="#8C1700" d="M271.215,80.623c0,0-0.591-0.039-0.828-0.039c-0.236,0-0.829,0.039-0.829,0.039
    c0.119-4.457,0.316-10.964,0.04-17.116c-1.538-0.118-3.233-0.158-6.31-0.158c-2.682,0-4.535,0-5.955,0.08
    c-0.237,6.113-0.158,11.713,0.039,17.195c0,0-0.591-0.039-0.828-0.039c-0.236,0-0.829,0.039-0.829,0.039
    c0.118-4.694,0.316-11.634,0-18.102c0,0,4.812,0.158,7.612,0.158c3.038,0,7.888-0.158,7.888-0.158
    C270.939,68.989,271.018,74.865,271.215,80.623z"/>
  <path fill="#8C1700" d="M291.84,80.623c0,0-0.59-0.039-0.827-0.039s-0.829,0.039-0.829,0.039c0.119-4.457,0.315-10.964,0.04-17.116
    c-1.538-0.118-3.234-0.158-6.311-0.158c-2.682,0-4.535,0-5.956,0.08c-0.236,6.113-0.158,11.713,0.04,17.195
    c0,0-0.591-0.039-0.827-0.039c-0.237,0-0.829,0.039-0.829,0.039c0.118-4.694,0.315-11.634,0-18.102c0,0,4.812,0.158,7.612,0.158
    c3.037,0,7.887-0.158,7.887-0.158C291.565,68.989,291.643,74.865,291.84,80.623z"/>
  <path fill="#8C1700" d="M312.899,80.623l-0.828-0.039l-0.868,0.039c-0.119-0.947-0.591-4.654-1.025-7.217
    c-0.789,3.865-3.708,7.494-8.006,7.494c-3.471,0-5.876-2.486-5.955-5.127c-0.119-4.102,3.155-6.31,7.849-6.31
    c1.931,0,4.416,0.434,5.561,0.67c-0.829-4.773-2.131-7.297-5.917-7.376c-2.563-0.079-4.417,1.302-5.442,2.249l-0.354-0.868
    l-0.355-0.79l0.04-0.039c1.618-0.473,3.628-1.223,6.191-1.183c4.3,0.079,6.745,3.194,7.375,8.558
    C311.203,70.921,312.307,77.35,312.899,80.623z M309.783,71.474l-0.039-0.67c0,0-2.681-0.67-5.639-0.67
    c-2.999,0-6.508,1.735-6.35,5.64c0.079,2.878,2.208,4.456,4.377,4.456C307.22,80.229,309.783,74.826,309.783,71.474z"/>
</g>
<g>
  <path fill="#8C1700" d="M42.634,0.608c-0.102,0.203-0.304,1.012-0.405,1.62c-0.203,0.709-0.304,2.127-0.304,2.127
    c-5.671-0.912-6.684-1.013-18.937-1.114c-0.608,16-0.406,30.38,0.101,44.761c0,0-1.62-0.103-2.228-0.103s-2.329,0.103-2.329,0.103
    c0.304-11.646,0.81-28.558,0.102-44.761C4.759,3.342,3.747,3.443,0,4.05c0,0,0.203-0.911,0.405-1.721
    c0.102-0.811,0.102-1.621,0.102-1.721c0-0.102,0.102-0.102,0.102-0.102c2.329,0.506,1.823,0.811,20.456,0.811
    c18.127,0,19.038-0.305,21.468-0.811C42.634,0.506,42.634,0.506,42.634,0.608z"/>
  <path fill="#8C1700" d="M89.619,47.898c0,0-1.519-0.101-2.126-0.101c-0.608,0-2.127,0.101-2.127,0.101
    c0.304-10.328,0.709-25.012,0.304-39.493c-4.152,4.05-9.013,9.418-16.506,17.621c-7.393,8.101-12.354,13.671-15.899,17.823
    c0,1.418,0.102,2.734,0.102,4.049c0,0-1.519-0.101-2.126-0.101c-0.608,0-2.127,0.101-2.127,0.101
    c0.304-12.049,0.912-29.872,0-46.48c0,0,1.013,0.101,2.127,0.101c1.012,0,2.126-0.101,2.126-0.101
    c-0.608,13.874-0.506,26.734-0.203,39.19c3.443-3.544,8.101-8.607,14.785-15.899C76.556,15.19,81.923,9.115,85.568,4.861
    c-0.101-1.215-0.101-2.33-0.203-3.443c0,0,1.013,0.101,2.228,0.101c0.912,0,2.025-0.101,2.025-0.101
    C88.91,18.026,89.113,33.115,89.619,47.898z"/>
  <path fill="#8C1700" d="M159.896,47.898c0,0-1.924-0.101-2.43-0.101c-0.507,0-1.924,0.101-1.924,0.101
    c-1.924-7.087-7.392-28.961-11.443-41.924c-4.253,6.785-12.962,22.887-15.089,42.027H128.3h-0.811h-0.405
    c-1.418-13.469-7.798-33.52-15.696-43.343l-9.216,43.444l-1.519-0.101l-1.418,0.101L110.983,0h0.81
    c6.178,6.785,14.38,23.494,16.912,37.064C134.579,16.203,145.718,0,145.718,0h0.506C148.958,11.241,156.554,37.875,159.896,47.898z
    "/>
  <path fill="#8C1700" d="M208.803,47.898c0,0-1.519-0.101-2.126-0.101c-0.607,0-2.126,0.101-2.126,0.101
    c0.303-11.442,0.809-28.151,0.101-43.949c-3.95-0.304-8.305-0.406-16.203-0.406c-6.886,0-11.646,0-15.291,0.203
    c-0.608,15.696-0.405,30.077,0.101,44.151c0,0-1.519-0.101-2.126-0.101c-0.608,0-2.127,0.101-2.127,0.101
    c0.304-12.049,0.81-29.872,0-46.48c0,0,12.354,0.406,19.545,0.406c7.796,0,20.252-0.406,20.252-0.406
    C208.094,18.026,208.296,33.115,208.803,47.898z"/>
  <path fill="#8C1700" d="M262.876,47.898l-2.127-0.101l-2.228,0.101c-0.303-2.429-1.519-11.949-2.632-18.531
    c-2.025,9.925-9.519,19.241-20.558,19.241c-8.911,0-15.089-6.379-15.291-13.165c-0.305-10.531,8.101-16.203,20.152-16.203
    c4.962,0,11.342,1.114,14.279,1.722c-2.126-12.253-5.469-18.734-15.19-18.937c-6.583-0.202-11.341,3.342-13.975,5.773l-0.912-2.228
    l-0.911-2.026l0.101-0.101c4.151-1.215,9.317-3.14,15.899-3.038c11.038,0.203,17.316,8.203,18.938,21.975
    C258.521,22.988,261.358,39.495,262.876,47.898z M254.876,24.406l-0.102-1.722c0,0-6.886-1.722-14.481-1.722
    c-7.696,0-16.709,4.456-16.304,14.481c0.202,7.393,5.67,11.444,11.24,11.444C248.293,46.887,254.876,33.014,254.876,24.406z"/>
  <path fill="#8C1700" d="M312.899,47.898c0,0-1.519-0.101-2.127-0.101c-0.607,0-2.126,0.101-2.126,0.101
    c0.101-6.378,0.406-14.682,0.406-23.29c-4.052-0.304-9.115-0.405-17.217-0.405c-7.189,0-12.05,0-15.695,0.203
    c0,7.899,0.202,15.899,0.506,23.493c0,0-1.519-0.101-2.127-0.101c-0.608,0-2.127,0.101-2.127,0.101
    c0.305-12.049,0.811-29.872,0-46.48c0,0,0.912,0.101,2.127,0.101c1.013,0,2.127-0.101,2.127-0.101
    c-0.305,7.19-0.506,13.975-0.506,20.76c3.443,0.102,8.303,0.203,15.797,0.203c8.102,0,13.367-0.101,17.115-0.304
    c0.101-6.785-0.102-13.772-0.406-20.659c0,0,0.912,0.101,2.126,0.101c1.013,0,2.127-0.101,2.127-0.101
    C312.19,18.026,312.393,33.115,312.899,47.898z"/>
</g>
</svg>
