<svg width="128" height="128" xmlns="http://www.w3.org/2000/svg" xmlns:xlink="http://www.w3.org/1999/xlink"><defs><path id="a" d="M0 .163h25.292V15.04H0z"/></defs><g fill="none" fill-rule="evenodd"><path d="M103.22 64.085c0-6.137 4.623-11.192 10.576-11.88a50.958 50.958 0 00-6.129-14.854 11.908 11.908 0 01-7.33 2.512c-6.606 0-11.962-5.356-11.962-11.963 0-2.79.957-5.355 2.559-7.39a50.966 50.966 0 00-15.14-6.307c-.687 5.954-5.742 10.577-11.88 10.577-6.137 0-11.192-4.623-11.88-10.577a50.959 50.959 0 00-14.936 6.181 11.91 11.91 0 012.659 7.516c0 6.607-5.356 11.963-11.963 11.963a11.911 11.911 0 01-7.532-2.672 50.961 50.961 0 00-6.23 15.014c5.954.688 10.577 5.743 10.577 11.88 0 6.138-4.623 11.193-10.576 11.88a50.968 50.968 0 006.233 15.02 11.91 11.91 0 017.528-2.668c6.607 0 11.963 5.356 11.963 11.963a11.91 11.91 0 01-2.654 7.51 50.96 50.96 0 0014.931 6.177c.688-5.953 5.743-10.576 11.88-10.576 6.138 0 11.193 4.623 11.88 10.576a50.97 50.97 0 0015.135-6.304 11.908 11.908 0 01-2.554-7.383c0-6.607 5.356-11.963 11.962-11.963 2.761 0 5.301.938 7.326 2.51a50.963 50.963 0 006.133-14.861c-5.953-.688-10.576-5.743-10.576-11.88" fill="#E2AA2B"/><path d="M75.716 14.536a51.185 51.185 0 00-11.801-1.377c-3.98 0-7.95.463-11.802 1.377l-.374.089-.044-.382a12.497 12.497 0 01-.085-1.426C51.61 6.032 57.13.513 63.915.513c6.784 0 12.304 5.52 12.304 12.304 0 .458-.029.937-.085 1.426l-.044.382-.374-.089z" fill="#EAC883"/><path d="M63.915.17c-6.974 0-12.647 5.674-12.647 12.647 0 .472.03.965.087 1.465l.089.764.748-.177A50.844 50.844 0 0163.915 13.5c3.952 0 7.896.46 11.722 1.368l.749.177.088-.764c.058-.501.087-.994.087-1.465C76.56 5.844 70.888.17 63.915.17m0 .683c6.606 0 11.962 5.356 11.962 11.963 0 .47-.03.931-.082 1.386a51.408 51.408 0 00-11.88-1.386c-4.09 0-8.067.482-11.88 1.386a12.055 12.055 0 01-.083-1.386C51.952 6.21 57.308.854 63.915.854" fill="#772F19"/><path d="M63.915 127.658c-6.785 0-12.305-5.52-12.305-12.304 0-.46.029-.939.085-1.426l.044-.382.374.088a51.172 51.172 0 0011.802 1.378c3.979 0 7.95-.464 11.8-1.378l.375-.088.044.382c.057.495.085.961.085 1.426 0 6.784-5.52 12.304-12.304 12.304" fill="#EAC883"/><g transform="translate(51.268 112.961)"><mask id="b" fill="#fff"><use xlink:href="#a"/></mask><path d="M25.117.163l-.749.178a50.833 50.833 0 01-11.722 1.368C8.693 1.709 4.75 1.249.924.341L.175.163.087.928C.03 1.428 0 1.92 0 2.393c0 6.973 5.673 12.646 12.646 12.646 6.973 0 12.646-5.673 12.646-12.646 0-.471-.029-.964-.086-1.465l-.089-.765zm-.59.843c.052.455.082.917.082 1.387 0 6.606-5.356 11.962-11.963 11.962C6.04 14.355.684 9 .684 2.393c0-.47.03-.932.082-1.387a51.397 51.397 0 0011.88 1.387c4.09 0 8.067-.482 11.88-1.387z" fill="#772F19" mask="url(#b)"/></g><path d="M12.646 76.39C5.862 76.39.342 70.87.342 64.085c0-6.784 5.52-12.304 12.304-12.304.46 0 .939.028 1.426.085l.382.044-.089.374a51.172 51.172 0 00-1.377 11.801c0 3.98.463 7.95 1.377 11.802l.09.374-.383.044c-.487.056-.966.085-1.426.085" fill="#EAC883"/><path d="M12.646 51.44C5.673 51.44 0 57.111 0 64.084s5.673 12.646 12.646 12.646c.473 0 .966-.029 1.465-.087l.764-.088-.177-.748a50.835 50.835 0 01-1.368-11.723c0-3.953.46-7.897 1.368-11.722l.178-.749-.765-.088c-.5-.058-.993-.087-1.465-.087m0 .684c.47 0 .932.03 1.387.082a51.397 51.397 0 00-1.387 11.88c0 4.09.482 8.067 1.387 11.88-.455.053-.918.083-1.387.083C6.04 76.048.684 70.692.684 64.085c0-6.607 5.355-11.962 11.962-11.962" fill="#772F19"/><path d="M115.183 76.39c-.46 0-.939-.029-1.426-.085l-.382-.044.089-.374a51.174 51.174 0 001.377-11.802c0-3.98-.463-7.95-1.377-11.8l-.089-.375.382-.044c.487-.057.967-.085 1.426-.085 6.785 0 12.304 5.52 12.304 12.304 0 6.785-5.52 12.305-12.304 12.305" fill="#EAC883"/><path d="M115.183 51.44c-.472 0-.965.028-1.465.086l-.764.088.177.749a50.833 50.833 0 011.368 11.722c0 3.953-.46 7.897-1.368 11.723l-.177.748.764.088c.5.058.993.087 1.465.087 6.973 0 12.646-5.673 12.646-12.646 0-6.973-5.673-12.646-12.646-12.646m0 .684c6.607 0 11.963 5.355 11.963 11.962 0 6.607-5.356 11.963-11.963 11.963-.47 0-.931-.03-1.387-.082a51.398 51.398 0 001.387-11.88c0-4.09-.482-8.068-1.387-11.88.456-.053.918-.083 1.387-.083" fill="#772F19"/><path d="M27.794 112.584c-6.785 0-12.304-5.52-12.304-12.304 0-3.725 1.662-7.21 4.56-9.56l.302-.245.204.33a51.39 51.39 0 0016.726 16.693l.331.204-.244.302a12.258 12.258 0 01-9.575 4.58" fill="#EAC883"/><path d="M20.439 89.965l-.604.49a12.6 12.6 0 00-4.687 9.825c0 6.973 5.673 12.646 12.646 12.646 3.838 0 7.424-1.716 9.84-4.707l.49-.605-.663-.406a51.048 51.048 0 01-16.614-16.582l-.408-.661zm-.173 1.02a51.528 51.528 0 0016.837 16.805 11.938 11.938 0 01-9.309 4.452c-6.607 0-11.963-5.355-11.963-11.962 0-3.753 1.73-7.101 4.435-9.294z" fill="#772F19"/><path d="M107.375 37.53A51.39 51.39 0 0090.753 20.8l-.324-.2.236-.3a12.24 12.24 0 019.672-4.704c6.785 0 12.305 5.52 12.305 12.304 0 3.826-1.737 7.369-4.765 9.72l-.302.235-.2-.326z" fill="#EAC883"/><path d="M100.337 15.254a12.58 12.58 0 00-9.94 4.834l-.473.6.649.403a51.048 51.048 0 0116.511 16.617l.399.651.603-.468a12.57 12.57 0 004.897-9.99c0-6.974-5.673-12.647-12.646-12.647m0 .684c6.607 0 11.963 5.355 11.963 11.962a11.94 11.94 0 01-4.633 9.45 51.53 51.53 0 00-16.733-16.84 11.938 11.938 0 019.403-4.572" fill="#772F19"/><path d="M100.337 112.584a12.239 12.239 0 01-9.677-4.71l-.236-.3.324-.201a51.392 51.392 0 0016.624-16.725l.199-.326.302.234a12.23 12.23 0 014.769 9.724c0 6.784-5.52 12.304-12.305 12.304" fill="#EAC883"/><path d="M107.479 89.818l-.399.651a51.05 51.05 0 01-16.512 16.614l-.648.403.471.6a12.578 12.578 0 009.946 4.84c6.973 0 12.646-5.673 12.646-12.646a12.57 12.57 0 00-4.9-9.994l-.604-.468zm.184 1.008a11.94 11.94 0 014.637 9.454c0 6.607-5.356 11.962-11.963 11.962-3.82 0-7.218-1.792-9.408-4.579a51.527 51.527 0 0016.734-16.837z" fill="#772F19"/><path d="M20.046 37.457A12.26 12.26 0 0115.49 27.9c0-6.785 5.52-12.304 12.304-12.304 3.73 0 7.219 1.667 9.57 4.573l.245.302-.332.204a51.388 51.388 0 00-16.725 16.696l-.204.33-.302-.244z" fill="#EAC883"/><path d="M27.794 15.254c-6.973 0-12.646 5.673-12.646 12.646 0 3.827 1.707 7.407 4.683 9.822l.604.49.408-.661a51.045 51.045 0 0116.613-16.585l.663-.407-.49-.605a12.598 12.598 0 00-9.835-4.7m0 .684c3.759 0 7.111 1.735 9.304 4.446a51.53 51.53 0 00-16.836 16.807 11.937 11.937 0 01-4.43-9.29c0-6.608 5.355-11.963 11.962-11.963" fill="#772F19"/><path d="M63.915 25.121c-6.25 0-11.504-4.677-12.22-10.878l-.035-.302.296-.07a51.865 51.865 0 0111.959-1.396c4.032 0 8.056.47 11.959 1.396l.295.07-.035.302c-.716 6.201-5.97 10.878-12.22 10.878" fill="#EAC883"/><path d="M63.915 12.133c-4.06 0-8.11.473-12.038 1.405l-.591.14.07.604c.736 6.374 6.135 11.181 12.559 11.181 6.423 0 11.823-4.807 12.559-11.181l.07-.603-.591-.14a52.207 52.207 0 00-12.038-1.406m0 .684c4.09 0 8.066.482 11.88 1.386-.688 5.954-5.743 10.577-11.88 10.577-6.138 0-11.193-4.623-11.88-10.577a51.396 51.396 0 0111.88-1.386" fill="#772F19"/><path d="M63.915 115.695c-4.033 0-8.057-.47-11.96-1.395l-.295-.07.035-.302c.716-6.202 5.97-10.879 12.22-10.879 6.25 0 11.503 4.677 12.22 10.879l.034.302-.295.07a51.864 51.864 0 01-11.96 1.395" fill="#EAC883"/><path d="M63.915 102.707c-6.424 0-11.823 4.807-12.56 11.182l-.07.603.592.14a52.193 52.193 0 0012.038 1.405c4.059 0 8.109-.472 12.038-1.405l.59-.14-.07-.603c-.735-6.375-6.135-11.182-12.558-11.182m0 .684c6.137 0 11.192 4.623 11.88 10.576a51.398 51.398 0 01-11.88 1.387c-4.09 0-8.067-.482-11.88-1.387.687-5.953 5.742-10.576 11.88-10.576" fill="#772F19"/><path d="M13.7 76.044a51.867 51.867 0 01-1.396-11.959c0-4.032.47-8.056 1.396-11.959l.07-.295.302.035c6.202.716 10.879 5.97 10.879 12.22 0 6.25-4.677 11.503-10.88 12.219l-.3.035-.07-.296z" fill="#EAC883"/><path d="M13.508 51.456l-.14.591a52.204 52.204 0 00-1.405 12.038c0 4.06.472 8.11 1.405 12.038l.14.591.603-.07c6.374-.736 11.181-6.135 11.181-12.559 0-6.423-4.807-11.823-11.18-12.559l-.604-.07zm.525.75c5.953.687 10.576 5.742 10.576 11.88 0 6.137-4.623 11.192-10.576 11.88a51.397 51.397 0 01-1.387-11.88c0-4.09.482-8.068 1.387-11.88z" fill="#772F19"/><path d="M113.757 76.305c-6.202-.716-10.878-5.97-10.878-12.22 0-6.25 4.676-11.503 10.878-12.22l.302-.034.07.295a51.864 51.864 0 011.396 11.96c0 4.032-.47 8.055-1.396 11.958l-.07.296-.302-.035z" fill="#EAC883"/><path d="M114.321 51.456l-.603.07c-6.374.736-11.181 6.135-11.181 12.559 0 6.424 4.807 11.823 11.181 12.56l.603.07.14-.592a52.197 52.197 0 001.405-12.038c0-4.059-.472-8.109-1.405-12.038l-.14-.59zm-.525.75a51.397 51.397 0 011.387 11.88c0 4.09-.482 8.066-1.387 11.88-5.953-.688-10.576-5.743-10.576-11.881 0-6.137 4.623-11.192 10.576-11.88z" fill="#772F19"/><path d="M36.924 108.08a52.077 52.077 0 01-16.95-16.915l-.157-.256.233-.19a12.33 12.33 0 017.744-2.743c6.785 0 12.304 5.52 12.304 12.304 0 2.802-.969 5.545-2.73 7.725l-.188.233-.256-.157z" fill="#EAC883"/><path d="M27.794 87.634c-2.89 0-5.716 1.001-7.96 2.82l-.466.38.316.51a52.418 52.418 0 0017.061 17.028l.512.315.378-.468a12.676 12.676 0 002.805-7.94c0-6.972-5.673-12.645-12.646-12.645m0 .683c6.607 0 11.963 5.356 11.963 11.963a11.91 11.91 0 01-2.654 7.51 51.525 51.525 0 01-16.837-16.805 11.91 11.91 0 017.528-2.668" fill="#772F19"/><path d="M100.337 40.204c-6.784 0-12.304-5.52-12.304-12.304 0-2.784.91-5.413 2.632-7.6l.19-.241.259.161a52.078 52.078 0 0116.844 16.952l.16.261-.242.188a12.183 12.183 0 01-7.539 2.583" fill="#EAC883"/><path d="M90.775 19.607l-.379.48a12.516 12.516 0 00-2.705 7.813c0 6.973 5.673 12.646 12.646 12.646 2.833 0 5.512-.918 7.75-2.655l.482-.376-.32-.521A52.423 52.423 0 0091.295 19.93l-.52-.323zm.159.904a51.53 51.53 0 0116.733 16.84 11.908 11.908 0 01-7.33 2.512c-6.606 0-11.962-5.356-11.962-11.963 0-2.79.958-5.355 2.559-7.39z" fill="#772F19"/><path d="M90.66 107.874a12.178 12.178 0 01-2.627-7.594c0-6.785 5.52-12.304 12.304-12.304 2.754 0 5.36.892 7.536 2.58l.241.188-.16.26a52.082 52.082 0 01-16.845 16.95l-.26.161-.189-.24z" fill="#EAC883"/><path d="M100.337 87.634c-6.973 0-12.646 5.673-12.646 12.646 0 2.858.934 5.558 2.7 7.806l.379.48.52-.322a52.423 52.423 0 0016.956-17.06l.32-.523-.484-.375a12.523 12.523 0 00-7.745-2.652m0 .683c2.761 0 5.301.938 7.326 2.51a51.528 51.528 0 01-16.734 16.836 11.908 11.908 0 01-2.555-7.383c0-6.607 5.357-11.963 11.963-11.963" fill="#772F19"/><path d="M27.794 40.204a12.33 12.33 0 01-7.748-2.747l-.233-.19.158-.255a52.076 52.076 0 0116.948-16.92l.256-.156.189.233a12.333 12.333 0 012.734 7.731c0 6.785-5.52 12.304-12.304 12.304" fill="#EAC883"/><path d="M37.252 19.487l-.512.315a52.42 52.42 0 00-17.06 17.03l-.316.512.467.378a12.674 12.674 0 007.963 2.824c6.973 0 12.646-5.673 12.646-12.646 0-2.883-.998-5.705-2.81-7.946l-.378-.467zm-.154.897a11.91 11.91 0 012.658 7.516c0 6.607-5.356 11.963-11.962 11.963a11.91 11.91 0 01-7.532-2.671 51.525 51.525 0 0116.836-16.808z" fill="#772F19"/><path d="M63.915 11.62c-7.083 0-13.954 1.388-20.423 4.124a52.29 52.29 0 00-16.676 11.243 52.292 52.292 0 00-11.243 16.676c-2.736 6.47-4.123 13.34-4.123 20.422 0 7.082 1.387 13.953 4.123 20.422a52.291 52.291 0 0011.243 16.676 52.288 52.288 0 0016.676 11.243c6.47 2.737 13.34 4.124 20.423 4.124 7.082 0 13.953-1.387 20.422-4.124a52.29 52.29 0 0016.676-11.243 52.291 52.291 0 0011.243-16.676c2.736-6.469 4.123-13.34 4.123-20.422 0-7.082-1.387-13.953-4.123-20.422a52.29 52.29 0 00-11.243-16.676 52.291 52.291 0 00-16.676-11.243c-6.47-2.736-13.34-4.123-20.422-4.123m0 1.196c28.315 0 51.268 22.953 51.268 51.268 0 28.314-22.953 51.269-51.268 51.269S12.646 92.399 12.646 64.085c0-28.315 22.954-51.268 51.269-51.268" fill="#772F19"/><path d="M45.774 86.423c-2.754 0-4.831-2.107-4.831-4.9 0-2.953 2.286-5.787 5.185-6.534.083-7.317.133-17.14-.08-23.34l-.059-1.426-.005.002-.008-.333-.046-.856.024-.002-.009-.35.503-.068c8.79-1.187 28.573-4.78 36.34-6.407l.665-.14.006.262.043-.009-.024.718.011.45-.027.005-.059 1.758c-.26 9.364-.176 26.52.075 33.996l.017.52-.515.062c-.01 0-.921.111-1.264.172-.243.043-.962.206-1.219.265l-.022.005-.023.004c-.277.04-.556.06-.829.06-2.755 0-4.832-2.106-4.832-4.899 0-2.953 2.287-5.787 5.185-6.534.08-7.051.13-16.439-.057-22.664L65.93 48.566c-.28 9.856-.15 27.287.076 34.012l.017.52-.516.061c-.01.002-.92.112-1.264.172-.243.043-.962.206-1.218.266l-.023.005-.023.003c-.277.041-.556.062-.828.062-2.755 0-4.831-2.107-4.831-4.9 0-2.954 2.286-5.787 5.184-6.534.083-7.243.132-16.844-.07-23.042l-12.888 2.423c-.249 9.217-.164 26.357.083 33.72l.017.52-.515.062c-.01.001-.921.112-1.265.172-.242.043-.961.206-1.218.265l-.022.005-.023.004c-.277.04-.556.061-.829.061z" fill="#FFF"/></g></svg>